<svg width="87" height="17" viewBox="0 0 87 17" fill="none" xmlns="http://www.w3.org/2000/svg">
<path d="M0.659973 16.4319V13.8219H2.72997V3.29194H0.659973V0.681943H8.75997C9.71997 0.681943 10.5525 0.846943 11.2575 1.17694C11.9775 1.49194 12.5325 1.94944 12.9225 2.54944C13.3275 3.13444 13.53 3.83944 13.53 4.66444V4.88944C13.53 5.60944 13.395 6.20194 13.125 6.66694C12.855 7.11694 12.5325 7.46944 12.1575 7.72444C11.7975 7.96444 11.4525 8.13694 11.1225 8.24194V8.64694C11.4525 8.73694 11.8125 8.90944 12.2025 9.16444C12.5925 9.40444 12.9225 9.75694 13.1925 10.2219C13.4775 10.6869 13.62 11.2944 13.62 12.0444V12.2694C13.62 13.1394 13.4175 13.8894 13.0125 14.5194C12.6075 15.1344 12.045 15.6069 11.325 15.9369C10.62 16.2669 9.79497 16.4319 8.84997 16.4319H0.659973ZM5.69997 13.7319H8.48997C9.13497 13.7319 9.65247 13.5744 10.0425 13.2594C10.4475 12.9444 10.65 12.4944 10.65 11.9094V11.6844C10.65 11.0994 10.455 10.6494 10.065 10.3344C9.67497 10.0194 9.14997 9.86194 8.48997 9.86194H5.69997V13.7319ZM5.69997 7.16194H8.44497C9.05997 7.16194 9.56247 7.00444 9.95247 6.68944C10.3575 6.37444 10.56 5.93944 10.56 5.38444V5.15944C10.56 4.58944 10.365 4.15444 9.97497 3.85444C9.58497 3.53944 9.07497 3.38194 8.44497 3.38194H5.69997V7.16194Z" fill="#101828"/>
<path d="M20.3264 16.7469C19.2164 16.7469 18.2189 16.5219 17.3339 16.0719C16.4489 15.6219 15.7514 14.9694 15.2414 14.1144C14.7314 13.2594 14.4764 12.2319 14.4764 11.0319V10.6719C14.4764 9.47194 14.7314 8.44444 15.2414 7.58944C15.7514 6.73444 16.4489 6.08194 17.3339 5.63194C18.2189 5.18194 19.2164 4.95694 20.3264 4.95694C21.4364 4.95694 22.4339 5.18194 23.3189 5.63194C24.2039 6.08194 24.9014 6.73444 25.4114 7.58944C25.9214 8.44444 26.1764 9.47194 26.1764 10.6719V11.0319C26.1764 12.2319 25.9214 13.2594 25.4114 14.1144C24.9014 14.9694 24.2039 15.6219 23.3189 16.0719C22.4339 16.5219 21.4364 16.7469 20.3264 16.7469ZM20.3264 14.2269C21.1964 14.2269 21.9164 13.9494 22.4864 13.3944C23.0564 12.8244 23.3414 12.0144 23.3414 10.9644V10.7394C23.3414 9.68944 23.0564 8.88694 22.4864 8.33194C21.9314 7.76194 21.2114 7.47694 20.3264 7.47694C19.4564 7.47694 18.7364 7.76194 18.1664 8.33194C17.5964 8.88694 17.3114 9.68944 17.3114 10.7394V10.9644C17.3114 12.0144 17.5964 12.8244 18.1664 13.3944C18.7364 13.9494 19.4564 14.2269 20.3264 14.2269Z" fill="#101828"/>
<path d="M27.6682 16.4319V0.681943H30.5032V16.4319H27.6682Z" fill="#101828"/>
<path d="M36.7948 16.4319C36.0598 16.4319 35.4598 16.2069 34.9948 15.7569C34.5448 15.2919 34.3198 14.6769 34.3198 13.9119V7.61194H31.5298V5.27194H34.3198V1.80694H37.1548V5.27194H40.2148V7.61194H37.1548V13.4169C37.1548 13.8669 37.3648 14.0919 37.7848 14.0919H39.9448V16.4319H36.7948Z" fill="#101828"/>
<path d="M46.291 16.7469C44.836 16.7469 43.6435 16.4319 42.7135 15.8019C41.7835 15.1719 41.221 14.2719 41.026 13.1019L43.636 12.4269C43.741 12.9519 43.9135 13.3644 44.1535 13.6644C44.4085 13.9644 44.716 14.1819 45.076 14.3169C45.451 14.4369 45.856 14.4969 46.291 14.4969C46.951 14.4969 47.4385 14.3844 47.7535 14.1594C48.0685 13.9194 48.226 13.6269 48.226 13.2819C48.226 12.9369 48.076 12.6744 47.776 12.4944C47.476 12.2994 46.996 12.1419 46.336 12.0219L45.706 11.9094C44.926 11.7594 44.2135 11.5569 43.5685 11.3019C42.9235 11.0319 42.406 10.6644 42.016 10.1994C41.626 9.73444 41.431 9.13444 41.431 8.39944C41.431 7.28944 41.836 6.44194 42.646 5.85694C43.456 5.25694 44.521 4.95694 45.841 4.95694C47.086 4.95694 48.121 5.23444 48.946 5.78944C49.771 6.34444 50.311 7.07194 50.566 7.97194L47.9335 8.78194C47.8135 8.21194 47.566 7.80694 47.191 7.56694C46.831 7.32694 46.381 7.20694 45.841 7.20694C45.301 7.20694 44.8885 7.30444 44.6035 7.49944C44.3185 7.67944 44.176 7.93444 44.176 8.26444C44.176 8.62444 44.326 8.89444 44.626 9.07444C44.926 9.23944 45.331 9.36694 45.841 9.45694L46.471 9.56944C47.311 9.71944 48.0685 9.92194 48.7435 10.1769C49.4335 10.4169 49.9735 10.7694 50.3635 11.2344C50.7685 11.6844 50.971 12.2994 50.971 13.0794C50.971 14.2494 50.5435 15.1569 49.6885 15.8019C48.8485 16.4319 47.716 16.7469 46.291 16.7469Z" fill="#101828"/>
<path d="M52.3303 16.4319V0.681943H55.1653V6.64444H55.5703C55.6903 6.40444 55.8778 6.16444 56.1328 5.92444C56.3878 5.68444 56.7253 5.48944 57.1453 5.33944C57.5803 5.17444 58.1278 5.09194 58.7878 5.09194C59.6578 5.09194 60.4153 5.29444 61.0603 5.69944C61.7203 6.08944 62.2303 6.63694 62.5903 7.34194C62.9503 8.03194 63.1303 8.84194 63.1303 9.77194V16.4319H60.2953V9.99694C60.2953 9.15695 60.0853 8.52694 59.6653 8.10694C59.2603 7.68694 58.6753 7.47694 57.9103 7.47694C57.0403 7.47694 56.3653 7.76944 55.8853 8.35444C55.4053 8.92445 55.1653 9.72694 55.1653 10.7619V16.4319H52.3303Z" fill="#101828"/>
<path d="M65.0701 16.4319V5.27194H67.9051V16.4319H65.0701ZM66.4876 3.96694C65.9776 3.96694 65.5426 3.80194 65.1826 3.47194C64.8376 3.14194 64.6651 2.70694 64.6651 2.16694C64.6651 1.62694 64.8376 1.19194 65.1826 0.861944C65.5426 0.531943 65.9776 0.366943 66.4876 0.366943C67.0126 0.366943 67.4476 0.531943 67.7926 0.861944C68.1376 1.19194 68.3101 1.62694 68.3101 2.16694C68.3101 2.70694 68.1376 3.14194 67.7926 3.47194C67.4476 3.80194 67.0126 3.96694 66.4876 3.96694Z" fill="#101828"/>
<path d="M71.7667 16.4319V7.61194H68.9317V5.27194H71.7667V3.20194C71.7667 2.43694 71.9917 1.82944 72.4417 1.37944C72.9067 0.914444 73.5067 0.681943 74.2417 0.681943H77.1667V3.02194H75.2317C74.8117 3.02194 74.6017 3.24694 74.6017 3.69694V5.27194H77.5267V7.61194H74.6017V16.4319H71.7667Z" fill="#101828"/>
<path d="M82.6517 16.4319C81.9167 16.4319 81.3167 16.2069 80.8517 15.7569C80.4017 15.2919 80.1767 14.6769 80.1767 13.9119V7.61194H77.3867V5.27194H80.1767V1.80694H83.0117V5.27194H86.0717V7.61194H83.0117V13.4169C83.0117 13.8669 83.2217 14.0919 83.6417 14.0919H85.8017V16.4319H82.6517Z" fill="#101828"/>
</svg>
