<svg width="33" height="34" viewBox="0 0 33 34" fill="none" xmlns="http://www.w3.org/2000/svg">
<path d="M27.2299 7.37237C26.9057 7.0482 26.5816 6.72404 26.2574 6.39987C25.2849 5.36255 24.2476 4.32522 22.9509 3.67689C21.4598 2.89889 19.8389 3.09339 18.2181 3.09339C15.7545 3.09339 9.59531 3.09339 5.96466 3.09339L8.42832 6.39987C12.9018 6.39987 19.9038 6.39987 23.1454 6.39987C24.5069 6.39987 25.6739 6.65921 26.7761 7.37237C26.9706 7.4372 27.1651 7.4372 27.2299 7.37237Z" fill="#66C61C"/>
<path d="M29.9529 12.6888C29.6287 12.3646 29.3045 12.0404 28.9804 11.7163C28.0079 10.6789 26.9706 9.64162 25.6739 8.99329C24.1827 8.21529 22.5619 8.4098 20.9411 8.4098C18.8016 8.4098 13.6798 8.4098 10.0491 8.4098L12.5128 11.7163C16.9214 11.7163 22.9509 11.7163 25.9332 11.7163C27.2947 11.7163 28.4617 11.9756 29.5639 12.6888C29.6935 12.7536 29.8232 12.7536 29.9529 12.6888Z" fill="#4CA30D"/>
<path d="M33 17.8752C32.6759 17.551 32.3517 17.2268 32.0275 16.9027C31.055 15.8654 30.0177 14.828 28.7211 14.1797C27.2299 13.4017 25.6091 13.5962 23.9882 13.5962C21.9784 13.5962 17.5698 13.5962 14.004 13.5962L16.4676 16.9027C20.7466 16.9027 26.1926 16.9027 28.9156 16.9027C30.2771 16.9027 31.444 17.162 32.5462 17.8752C32.7407 17.94 32.8704 18.0048 33 17.8752Z" fill="#3B7C0F"/>
<path d="M5.70538 26.6276C6.02955 26.9518 6.35371 27.2759 6.67788 27.6001C7.65037 28.6374 8.6877 29.6747 9.98436 30.3231C11.4755 31.1011 13.0963 30.9066 14.7172 30.9066H26.9706L24.507 27.6001C20.0335 27.6001 13.0315 27.6001 9.78987 27.6001C8.42837 27.6001 7.26137 27.3408 6.15921 26.6276C5.96471 26.5628 5.83505 26.5628 5.70538 26.6276Z" fill="#66C61C"/>
<path d="M2.98236 21.3116C3.30653 21.6357 3.63069 21.9599 3.95486 22.2841C4.92735 23.3214 5.96467 24.3587 7.26133 25.0071C8.75249 25.7851 10.3733 25.5905 11.9941 25.5905H22.8861L20.4224 22.2841C16.0138 22.2841 9.98432 22.2841 7.00201 22.2841C5.64051 22.2841 4.47351 22.0247 3.37135 21.3116C3.24169 21.2467 3.11203 21.2467 2.98236 21.3116Z" fill="#4CA30D"/>
<path d="M0 16.0599C0.324165 16.384 0.64833 16.7082 0.972495 17.0324C1.94499 18.0697 2.98232 19.107 4.27898 19.7553C5.77014 20.5333 7.39096 20.3388 9.01179 20.3388H18.9961L16.5324 17.0324C12.2534 17.0324 6.80747 17.0324 4.08448 17.0324C2.72299 17.0324 1.55599 16.773 0.453829 16.0599C0.25933 15.995 0.129666 15.995 0 16.0599Z" fill="#3B7C0F"/>
</svg>
