<svg width="112" height="29" viewBox="0 0 112 29" fill="none" xmlns="http://www.w3.org/2000/svg">
<path d="M8.85 22.24C13.56 22.24 16.74 19.78 16.74 15.85C16.74 7.54 5.7 11.08 5.7 6.7C5.7 5.47 6.81 4.63 8.58 4.63C10.59 4.63 11.85 5.71 12 7.36H16.29C16.17 3.37 13.11 0.759999 8.58 0.759999C4.32 0.759999 1.32 3.22 1.32 6.7C1.32 14.95 12.21 11.8 12.21 15.91C12.21 17.5 10.86 18.34 8.85 18.34C6.63 18.34 5.22 16.99 5.04 14.86H0.720001C0.900001 19.33 4.08 22.24 8.85 22.24Z" fill="#101828"/>
<path d="M17.7602 28.12H21.9302V20.65C22.7402 21.67 24.2102 22.24 25.9202 22.24C30.2702 22.24 33.2102 19.15 33.2102 14.44C33.2102 9.73 30.5102 6.64 26.2802 6.64C24.3302 6.64 22.8302 7.36 21.9302 8.53V6.88H17.7602V28.12ZM25.4102 18.64C23.1602 18.64 21.6902 16.96 21.6902 14.44C21.6902 11.89 23.1602 10.21 25.4102 10.21C27.6002 10.21 29.1002 11.89 29.1002 14.44C29.1002 16.96 27.6002 18.64 25.4102 18.64Z" fill="#101828"/>
<path d="M34.2192 22H38.3892V13.72C38.3892 11.77 39.6792 10.36 41.5092 10.36C43.2492 10.36 44.4492 11.68 44.4492 13.51V22H48.6192V12.58C48.6192 9.1 46.3992 6.64 43.0092 6.64C40.9092 6.64 39.2592 7.51 38.3892 8.98V0.309998H34.2192V22Z" fill="#101828"/>
<path d="M60.2845 16.87C59.9545 18.16 58.8445 18.82 57.1645 18.82C55.0645 18.82 53.7145 17.5 53.4145 15.37H64.2745C64.3045 15.04 64.3345 14.59 64.3345 14.02C64.3345 10.57 62.2045 6.64 56.8645 6.64C51.7345 6.64 49.3945 10.57 49.3945 14.41C49.3945 18.22 52.0345 22.24 57.1645 22.24C60.8845 22.24 63.7645 20.14 64.3645 16.87H60.2845ZM56.8645 9.7C58.8745 9.7 60.0445 11.05 60.1645 12.73H53.4745C53.8345 10.63 54.9745 9.7 56.8645 9.7Z" fill="#101828"/>
<path d="M75.2709 10.36V6.88H73.1194C71.2894 6.88 70.1494 7.51 69.3394 9.4V6.88H65.1394V22H69.3394V14.65C69.3394 12.07 70.2694 10.36 72.3394 10.36H75.2709Z" fill="#101828"/>
<path d="M89.6709 6.88H85.4709V15.16C85.4709 17.08 84.1809 18.52 82.3509 18.52C80.6409 18.52 79.4409 17.2 79.4409 15.37V6.88H75.2709V16.3C75.2709 19.75 77.4909 22.24 80.8809 22.24C82.9509 22.24 84.6309 21.34 85.4709 19.9V22H89.6709V6.88Z" fill="#101828"/>
<path d="M91.4712 22H95.6412V0.309998H91.4712V22Z" fill="#101828"/>
<path d="M107.546 16.87C107.216 18.16 106.106 18.82 104.426 18.82C102.326 18.82 100.976 17.5 100.676 15.37H111.536C111.566 15.04 111.596 14.59 111.596 14.02C111.596 10.57 109.466 6.64 104.126 6.64C98.9963 6.64 96.6562 10.57 96.6562 14.41C96.6562 18.22 99.2962 22.24 104.426 22.24C108.146 22.24 111.026 20.14 111.626 16.87H107.546ZM104.126 9.7C106.136 9.7 107.306 11.05 107.426 12.73H100.736C101.096 10.63 102.236 9.7 104.126 9.7Z" fill="#101828"/>
</svg>
