<svg width="96" height="17" viewBox="0 0 96 17" fill="none" xmlns="http://www.w3.org/2000/svg">
<path d="M10.515 0.681885V12.0894L3.20247 0.681885H0.277466V16.4319H3.20247V5.11439L10.515 16.4319H13.44V0.681885H10.515Z" fill="#101828"/>
<path d="M14.758 3.62939H17.773V0.681885H14.758V3.62939ZM14.803 16.4319V5.18189H17.728V16.4319H14.803Z" fill="#101828"/>
<path d="M30.313 10.8069C30.313 6.91439 27.5455 5.06939 24.6205 5.04689C21.673 5.02438 18.9505 6.91439 18.9505 10.8069C18.9505 14.6994 21.673 16.5894 24.6205 16.5669C27.298 16.5444 29.143 15.3069 29.998 13.2594L27.7255 12.3144C27.028 13.7094 25.9255 14.2044 24.6205 14.2269C23.4955 14.2494 22.213 13.7094 21.943 11.7069H30.2455C30.2905 11.4144 30.313 11.1219 30.313 10.8069ZM24.6205 7.36438C25.7455 7.38689 26.893 7.99439 27.253 9.61439H21.988C22.3705 7.97189 23.518 7.34189 24.6205 7.36438Z" fill="#101828"/>
<path d="M37.0729 7.27439V5.04689H35.2279V2.03188L32.3029 2.93189V5.04689H30.4579V7.27439H32.3029V13.1019C32.3029 15.3069 32.4829 16.4319 35.9029 16.4319H36.6904V13.8669H35.9029C35.3629 13.8669 35.2279 13.7769 35.2279 13.1019V7.27439H37.0729Z" fill="#101828"/>
<path d="M41.4192 13.9794L47.6292 7.63439V5.18189H38.3142V7.63439H44.3442L38.1342 13.9794V16.4319H47.6967V13.9794H41.4192Z" fill="#101828"/>
<path d="M48.7455 13.2594L51.693 12.8094C51.8955 13.9344 53.223 14.3619 54.033 14.3619C54.8655 14.3619 56.3055 14.1819 56.3055 12.8319C56.3055 10.1994 49.083 13.4844 49.083 8.44439C49.083 5.20439 52.8405 5.02438 54.033 5.02438C55.158 5.02438 58.4205 5.20438 59.0955 7.81438L56.3055 8.39939C56.058 7.20689 54.798 6.98189 54.123 6.98189C53.448 6.98189 52.008 7.13939 52.008 8.44439C52.008 11.0544 59.2305 7.72439 59.2305 12.8319C59.2305 16.2744 55.2705 16.5669 54.033 16.5669C52.908 16.5669 49.3305 16.2744 48.7455 13.2594Z" fill="#101828"/>
<path d="M63.0303 10.8069C63.0303 13.5519 64.4928 14.3844 66.0228 14.3619C67.3953 14.3394 68.3403 13.7769 68.9028 12.2019L71.3103 13.3719C70.4328 15.6669 68.2953 16.5444 66.0228 16.5669C63.0753 16.5894 60.1053 14.6994 60.1053 10.8069C60.1053 6.91439 63.0753 5.02438 66.0228 5.04689C68.2953 5.06939 70.4328 5.94689 71.3103 8.24189L68.9028 9.41189C68.3403 7.83689 67.3953 7.27439 66.0228 7.25188C64.4928 7.22939 63.0303 8.06189 63.0303 10.8069Z" fill="#101828"/>
<path d="M79.1626 5.00189C77.6551 5.00189 76.2826 5.78939 75.4052 7.47689V0.681885H72.4801V16.4319H75.4052V12.4494C75.4052 7.29689 77.5426 6.86939 78.3301 6.86939C79.5901 6.86939 79.7701 8.17439 79.7701 10.0869V16.4319H82.6952V10.0869C82.6952 7.70189 82.3126 5.00189 79.1626 5.00189Z" fill="#101828"/>
<path d="M95.0445 10.8069C95.0445 6.91439 92.277 5.06939 89.352 5.04689C86.4045 5.02438 83.682 6.91439 83.682 10.8069C83.682 14.6994 86.4045 16.5894 89.352 16.5669C92.0295 16.5444 93.8745 15.3069 94.7295 13.2594L92.457 12.3144C91.7595 13.7094 90.657 14.2044 89.352 14.2269C88.227 14.2494 86.9445 13.7094 86.6745 11.7069H94.977C95.022 11.4144 95.0445 11.1219 95.0445 10.8069ZM89.352 7.36438C90.477 7.38689 91.6245 7.99439 91.9845 9.61439H86.7195C87.102 7.97189 88.2495 7.34189 89.352 7.36438Z" fill="#101828"/>
</svg>
