<svg width="108" height="17" viewBox="0 0 108 17" fill="none" xmlns="http://www.w3.org/2000/svg">
<path d="M7.88001 16.68C9.90501 16.68 11.57 15.645 12.0875 14.0925V16.5H15.08V10.425C15.08 9.05254 14 7.88254 12.5375 7.88254H8.26252V10.425H11.3C11.6825 10.425 11.93 10.6725 11.93 11.055C11.93 12.5175 9.99502 13.935 8.03752 13.935C5.42752 13.935 3.35751 11.8875 3.35751 8.62504C3.35751 5.36254 5.42752 3.47254 8.10502 3.47254C10.13 3.47254 11.525 4.57504 11.7725 6.26254H15.125C14.9225 2.88754 12.0875 0.570045 8.12752 0.570045C3.96501 0.570045 0.140015 3.24754 0.140015 8.62504C0.140015 14.0025 3.85251 16.68 7.88001 16.68Z" fill="#101828"/>
<path d="M16.3646 16.5H19.4921V0.232544H16.3646V16.5Z" fill="#101828"/>
<path d="M26.2384 16.68C29.7259 16.68 32.2234 14.205 32.2234 10.83C32.2234 7.45504 29.7259 4.98004 26.2384 4.98004C22.7509 4.98004 20.2534 7.45504 20.2534 10.83C20.2534 14.205 22.7509 16.68 26.2384 16.68ZM26.2384 13.98C24.5509 13.98 23.4034 12.6975 23.4034 10.83C23.4034 8.94004 24.5509 7.65754 26.2384 7.65754C27.9259 7.65754 29.0734 8.94004 29.0734 10.83C29.0734 12.6975 27.9259 13.98 26.2384 13.98Z" fill="#101828"/>
<path d="M39.2216 16.68C42.5741 16.68 44.5766 14.3625 44.5766 10.83C44.5766 7.29754 42.5741 4.98004 39.2666 4.98004C37.8491 4.98004 36.7466 5.52004 36.1166 6.35254V0.232544H32.9891V16.5H36.1166V15.2625C36.7466 16.14 37.9166 16.68 39.2216 16.68ZM38.7266 13.98C37.0391 13.98 35.9366 12.72 35.9366 10.83C35.9366 8.91754 37.0391 7.65754 38.7266 7.65754C40.3691 7.65754 41.4941 8.91754 41.4941 10.83C41.4941 12.72 40.3691 13.98 38.7266 13.98Z" fill="#101828"/>
<path d="M49.8119 4.98004C46.7069 4.98004 44.8619 6.80254 44.7269 9.07504H47.5169C47.5619 8.13004 48.2594 7.27504 49.6319 7.27504C50.9144 7.27504 51.6569 7.92754 51.6569 8.87254C51.6569 9.34504 51.3644 9.70504 50.8019 9.70504H48.8894C46.4144 9.70504 44.7494 11.055 44.7494 13.2825C44.7494 15.2175 46.2569 16.68 48.4619 16.68C50.0144 16.68 51.2744 15.9825 51.6569 14.925V16.5H54.7619V9.21004C54.7619 6.64504 52.6694 4.98004 49.8119 4.98004ZM49.2494 14.4075C48.3719 14.4075 47.7419 13.89 47.7419 13.1475C47.7419 12.27 48.4169 11.685 49.3619 11.685H51.6569V11.8425C51.6569 13.2825 50.7794 14.4075 49.2494 14.4075Z" fill="#101828"/>
<path d="M55.9637 16.5H59.0913V0.232544H55.9637V16.5Z" fill="#101828"/>
<path d="M60.7526 16.5H67.1876C70.5176 16.5 72.8126 14.79 72.8126 11.7975C72.8126 9.72754 71.5976 8.46754 70.1576 7.90504C71.0801 7.41004 72.0026 6.28504 72.0026 4.80004C72.0026 2.16754 69.8651 0.750044 67.0076 0.750044H60.7526V16.5ZM64.0826 6.75754V3.42754H66.6926C68.2001 3.42754 68.8751 4.03504 68.8751 5.09254C68.8751 6.15004 68.2001 6.75754 66.7601 6.75754H64.0826ZM64.0826 13.575V9.61504H66.8951C68.7626 9.61504 69.5951 10.335 69.5951 11.6175C69.5951 12.9 68.7626 13.575 66.8951 13.575H64.0826Z" fill="#101828"/>
<path d="M78.2533 4.98004C75.1483 4.98004 73.3033 6.80254 73.1683 9.07504H75.9583C76.0033 8.13004 76.7008 7.27504 78.0733 7.27504C79.3558 7.27504 80.0983 7.92754 80.0983 8.87254C80.0983 9.34504 79.8058 9.70504 79.2433 9.70504H77.3308C74.8558 9.70504 73.1908 11.055 73.1908 13.2825C73.1908 15.2175 74.6983 16.68 76.9033 16.68C78.4558 16.68 79.7158 15.9825 80.0983 14.925V16.5H83.2033V9.21004C83.2033 6.64504 81.1108 4.98004 78.2533 4.98004ZM77.6908 14.4075C76.8133 14.4075 76.1833 13.89 76.1833 13.1475C76.1833 12.27 76.8583 11.685 77.8033 11.685H80.0983V11.8425C80.0983 13.2825 79.2208 14.4075 77.6908 14.4075Z" fill="#101828"/>
<path d="M84.2252 16.5H87.3752V10.29C87.3752 8.82754 88.3427 7.77004 89.7152 7.77004C91.0202 7.77004 91.8977 8.76005 91.8977 10.1325V16.5H95.0477V9.43504C95.0477 6.82504 93.3827 4.98004 90.8177 4.98004C89.2652 4.98004 88.0052 5.63254 87.3752 6.73504V5.16004H84.2252V16.5Z" fill="#101828"/>
<path d="M104.025 16.5H107.805L102.923 9.61504L107.445 5.16004H103.485L99.5478 9.03004V0.232544H96.3978V16.5H99.5478V12.945L100.808 11.7075L104.025 16.5Z" fill="#101828"/>
</svg>
