<svg width="34" height="34" viewBox="0 0 34 34" fill="none" xmlns="http://www.w3.org/2000/svg">
<circle cx="17" cy="17.1874" r="15" stroke="#6927DA" stroke-width="3"/>
<path d="M22.8336 23.0212C19.7682 26.0866 16.3081 28.0738 13.2514 28.8598C10.157 29.6555 7.77018 29.1709 6.39338 27.7941C5.01657 26.4173 4.53201 24.0305 5.32772 20.9361C6.11373 17.8794 8.10089 14.4194 11.1663 11.3539C14.2318 8.28844 17.6918 6.30128 20.7485 5.51527C23.843 4.71956 26.2298 5.20412 27.6066 6.58093C28.9834 7.95773 29.4679 10.3445 28.6722 13.439C27.8862 16.4957 25.8991 19.9557 22.8336 23.0212Z" stroke="#6927DA" stroke-width="3"/>
<path d="M22.8335 11.3539C25.8989 14.4193 27.8861 17.8794 28.6721 20.9361C29.4678 24.0305 28.9833 26.4173 27.6064 27.7941C26.2296 29.1709 23.8428 29.6555 20.7484 28.8598C17.6917 28.0738 14.2317 26.0866 11.1662 23.0212C8.10076 19.9557 6.1136 16.4957 5.32759 13.439C4.53187 10.3445 5.01644 7.95773 6.39324 6.58092C7.77005 5.20412 10.1569 4.71955 13.2513 5.51526C16.308 6.30127 19.768 8.28844 22.8335 11.3539Z" stroke="#6927DA" stroke-width="3"/>
</svg>
