<svg width="84" height="22" viewBox="0 0 84 22" fill="none" xmlns="http://www.w3.org/2000/svg">
<path d="M6.63754 16.68C10.17 16.68 12.555 14.835 12.555 11.8875C12.555 5.65505 4.27504 8.31005 4.27504 5.02504C4.27504 4.10255 5.10754 3.47254 6.43504 3.47254C7.94254 3.47254 8.88754 4.28254 9.00004 5.52004H12.2175C12.1275 2.52754 9.83254 0.570045 6.43504 0.570045C3.24004 0.570045 0.990039 2.41504 0.990039 5.02504C0.990039 11.2125 9.15754 8.85005 9.15754 11.9325C9.15754 13.125 8.14504 13.755 6.63754 13.755C4.97254 13.755 3.91504 12.7425 3.78004 11.145H0.540039C0.675039 14.4975 3.06004 16.68 6.63754 16.68Z" fill="#101828"/>
<path d="M13.3202 21.09H16.4477V15.4875C17.0552 16.2525 18.1577 16.68 19.4402 16.68C22.7027 16.68 24.9077 14.3625 24.9077 10.83C24.9077 7.29755 22.8827 4.98004 19.7102 4.98004C18.2477 4.98004 17.1227 5.52004 16.4477 6.39754V5.16005H13.3202V21.09ZM19.0577 13.98C17.3702 13.98 16.2677 12.72 16.2677 10.83C16.2677 8.91755 17.3702 7.65755 19.0577 7.65755C20.7002 7.65755 21.8252 8.91755 21.8252 10.83C21.8252 12.72 20.7002 13.98 19.0577 13.98Z" fill="#101828"/>
<path d="M25.6645 16.5H28.792V10.29C28.792 8.82755 29.7595 7.77005 31.132 7.77005C32.437 7.77005 33.337 8.76005 33.337 10.1325V16.5H36.4645V9.43505C36.4645 6.82505 34.7995 4.98004 32.257 4.98004C30.682 4.98004 29.4445 5.63255 28.792 6.73505V0.232544H25.6645V16.5Z" fill="#101828"/>
<path d="M45.2134 12.6525C44.9659 13.62 44.1334 14.115 42.8734 14.115C41.2984 14.115 40.2859 13.125 40.0609 11.5275H48.2059C48.2284 11.28 48.2509 10.9425 48.2509 10.515C48.2509 7.92755 46.6534 4.98004 42.6484 4.98004C38.8009 4.98004 37.0459 7.92755 37.0459 10.8075C37.0459 13.665 39.0259 16.68 42.8734 16.68C45.6634 16.68 47.8234 15.105 48.2734 12.6525H45.2134ZM42.6484 7.27504C44.1559 7.27504 45.0334 8.28755 45.1234 9.54755H40.1059C40.3759 7.97255 41.2309 7.27504 42.6484 7.27504Z" fill="#101828"/>
<path d="M56.4532 7.77005V5.16005H54.8396C53.4671 5.16005 52.6121 5.63255 52.0046 7.05005V5.16005H48.8546V16.5H52.0046V10.9875C52.0046 9.05254 52.7021 7.77005 54.2546 7.77005H56.4532Z" fill="#101828"/>
<path d="M67.2532 5.16005H64.1032V11.37C64.1032 12.81 63.1357 13.89 61.7632 13.89C60.4807 13.89 59.5807 12.9 59.5807 11.5275V5.16005H56.4532V12.225C56.4532 14.8125 58.1182 16.68 60.6607 16.68C62.2132 16.68 63.4732 16.005 64.1032 14.925V16.5H67.2532V5.16005Z" fill="#101828"/>
<path d="M68.6034 16.5H71.7309V0.232544H68.6034V16.5Z" fill="#101828"/>
<path d="M80.6597 12.6525C80.4122 13.62 79.5797 14.115 78.3197 14.115C76.7447 14.115 75.7322 13.125 75.5072 11.5275H83.6522C83.6747 11.28 83.6972 10.9425 83.6972 10.515C83.6972 7.92755 82.0997 4.98004 78.0947 4.98004C74.2472 4.98004 72.4922 7.92755 72.4922 10.8075C72.4922 13.665 74.4722 16.68 78.3197 16.68C81.1097 16.68 83.2697 15.105 83.7197 12.6525H80.6597ZM78.0947 7.27504C79.6022 7.27504 80.4797 8.28755 80.5697 9.54755H75.5522C75.8222 7.97255 76.6772 7.27504 78.0947 7.27504Z" fill="#101828"/>
</svg>
