<svg width="144" height="23" viewBox="0 0 144 23" fill="none" xmlns="http://www.w3.org/2000/svg">
<path d="M10.34 22.24C13.04 22.24 15.26 20.86 15.95 18.79V22H19.94V13.9C19.94 12.07 18.5 10.51 16.55 10.51H10.85V13.9H14.9C15.41 13.9 15.74 14.23 15.74 14.74C15.74 16.69 13.16 18.58 10.55 18.58C7.07 18.58 4.31 15.85 4.31 11.5C4.31 7.15 7.07 4.63 10.64 4.63C13.34 4.63 15.2 6.1 15.53 8.35H20C19.73 3.85 15.95 0.759999 10.67 0.759999C5.12 0.759999 0.0200043 4.33 0.0200043 11.5C0.0200043 18.67 4.97 22.24 10.34 22.24Z" fill="#101828"/>
<path d="M21.6528 22H25.8228V0.309998H21.6528V22Z" fill="#101828"/>
<path d="M34.8179 22.24C39.4679 22.24 42.7979 18.94 42.7979 14.44C42.7979 9.94 39.4679 6.64 34.8179 6.64C30.1679 6.64 26.8379 9.94 26.8379 14.44C26.8379 18.94 30.1679 22.24 34.8179 22.24ZM34.8179 18.64C32.5679 18.64 31.0379 16.93 31.0379 14.44C31.0379 11.92 32.5679 10.21 34.8179 10.21C37.0679 10.21 38.5979 11.92 38.5979 14.44C38.5979 16.93 37.0679 18.64 34.8179 18.64Z" fill="#101828"/>
<path d="M52.1288 22.24C56.5988 22.24 59.2688 19.15 59.2688 14.44C59.2688 9.73 56.5988 6.64 52.1888 6.64C50.2988 6.64 48.8288 7.36 47.9888 8.47V0.309998H43.8188V22H47.9888V20.35C48.8288 21.52 50.3888 22.24 52.1288 22.24ZM51.4688 18.64C49.2188 18.64 47.7488 16.96 47.7488 14.44C47.7488 11.89 49.2188 10.21 51.4688 10.21C53.6588 10.21 55.1588 11.89 55.1588 14.44C55.1588 16.96 53.6588 18.64 51.4688 18.64Z" fill="#101828"/>
<path d="M66.2492 6.64C62.1092 6.64 59.6492 9.07 59.4692 12.1H63.1892C63.2492 10.84 64.1792 9.7 66.0092 9.7C67.7192 9.7 68.7092 10.57 68.7092 11.83C68.7092 12.46 68.3192 12.94 67.5692 12.94H65.0192C61.7192 12.94 59.4992 14.74 59.4992 17.71C59.4992 20.29 61.5092 22.24 64.4492 22.24C66.5192 22.24 68.1992 21.31 68.7092 19.9V22H72.8492V12.28C72.8492 8.86 70.0592 6.64 66.2492 6.64ZM65.4992 19.21C64.3292 19.21 63.4892 18.52 63.4892 17.53C63.4892 16.36 64.3892 15.58 65.6492 15.58H68.7092V15.79C68.7092 17.71 67.5392 19.21 65.4992 19.21Z" fill="#101828"/>
<path d="M74.4516 22H78.6217V0.309998H74.4516V22Z" fill="#101828"/>
<path d="M80.8367 22H89.4167C93.8567 22 96.9167 19.72 96.9167 15.73C96.9167 12.97 95.2967 11.29 93.3767 10.54C94.6067 9.88 95.8367 8.38 95.8367 6.4C95.8367 2.89 92.9867 0.999998 89.1767 0.999998H80.8367V22ZM85.2767 9.01V4.57H88.7567C90.7667 4.57 91.6667 5.38 91.6667 6.79C91.6667 8.2 90.7667 9.01 88.8467 9.01H85.2767ZM85.2767 18.1V12.82H89.0267C91.5167 12.82 92.6267 13.78 92.6267 15.49C92.6267 17.2 91.5167 18.1 89.0267 18.1H85.2767Z" fill="#101828"/>
<path d="M104.171 6.64C100.031 6.64 97.5711 9.07 97.3911 12.1H101.111C101.171 10.84 102.101 9.7 103.931 9.7C105.641 9.7 106.631 10.57 106.631 11.83C106.631 12.46 106.241 12.94 105.491 12.94H102.941C99.6411 12.94 97.4211 14.74 97.4211 17.71C97.4211 20.29 99.4311 22.24 102.371 22.24C104.441 22.24 106.121 21.31 106.631 19.9V22H110.771V12.28C110.771 8.86 107.981 6.64 104.171 6.64ZM103.421 19.21C102.251 19.21 101.411 18.52 101.411 17.53C101.411 16.36 102.311 15.58 103.571 15.58H106.631V15.79C106.631 17.71 105.461 19.21 103.421 19.21Z" fill="#101828"/>
<path d="M112.134 22H116.334V13.72C116.334 11.77 117.624 10.36 119.454 10.36C121.194 10.36 122.364 11.68 122.364 13.51V22H126.564V12.58C126.564 9.1 124.344 6.64 120.924 6.64C118.854 6.64 117.174 7.51 116.334 8.98V6.88H112.134V22Z" fill="#101828"/>
<path d="M138.534 22H143.574L137.064 12.82L143.094 6.88H137.814L132.564 12.04V0.309998H128.364V22H132.564V17.26L134.244 15.61L138.534 22Z" fill="#101828"/>
</svg>
