<svg width="117" height="30" viewBox="0 0 117 30" fill="none" xmlns="http://www.w3.org/2000/svg">
<path d="M5.29107 18.3452H11.3391V21.9092H0.674072V2.95523H5.29107V18.3452Z" fill="#101828"/>
<path d="M15.5933 5.27723C14.7833 5.27723 14.1173 5.04323 13.5953 4.57523C13.0913 4.08923 12.8393 3.49523 12.8393 2.79323C12.8393 2.07323 13.0913 1.47923 13.5953 1.01123C14.1173 0.525227 14.7833 0.282227 15.5933 0.282227C16.3853 0.282227 17.0333 0.525227 17.5373 1.01123C18.0593 1.47923 18.3203 2.07323 18.3203 2.79323C18.3203 3.49523 18.0593 4.08923 17.5373 4.57523C17.0333 5.04323 16.3853 5.27723 15.5933 5.27723ZM17.8883 6.84323V21.9092H13.2713V6.84323H17.8883Z" fill="#101828"/>
<path d="M26.6882 6.62723C27.7502 6.62723 28.6772 6.84323 29.4692 7.27523C30.2792 7.70723 30.9002 8.27423 31.3321 8.97623V6.84323H35.9492V21.8822C35.9492 23.2682 35.6702 24.5192 35.1122 25.6352C34.5722 26.7692 33.7351 27.6692 32.6012 28.3352C31.4852 29.0012 30.0902 29.3342 28.4162 29.3342C26.1842 29.3342 24.3751 28.8032 22.9891 27.7412C21.6031 26.6972 20.8111 25.2752 20.6131 23.4752H25.1761C25.3201 24.0512 25.6621 24.5012 26.2022 24.8252C26.7422 25.1672 27.4081 25.3382 28.2001 25.3382C29.1542 25.3382 29.9102 25.0592 30.4682 24.5012C31.0442 23.9612 31.3321 23.0882 31.3321 21.8822V19.7492C30.8822 20.4512 30.2612 21.0272 29.4692 21.4772C28.6772 21.9092 27.7502 22.1252 26.6882 22.1252C25.4461 22.1252 24.3211 21.8102 23.3132 21.1802C22.3052 20.5322 21.5042 19.6232 20.9102 18.4532C20.3342 17.2652 20.0462 15.8972 20.0462 14.3492C20.0462 12.8012 20.3342 11.4422 20.9102 10.2722C21.5042 9.10223 22.3052 8.20223 23.3132 7.57223C24.3211 6.94223 25.4461 6.62723 26.6882 6.62723ZM31.3321 14.3762C31.3321 13.2242 31.0082 12.3152 30.3602 11.6492C29.7302 10.9832 28.9562 10.6502 28.0381 10.6502C27.1201 10.6502 26.3371 10.9832 25.6891 11.6492C25.0591 12.2972 24.7442 13.1972 24.7442 14.3492C24.7442 15.5012 25.0591 16.4192 25.6891 17.1032C26.3371 17.7692 27.1201 18.1022 28.0381 18.1022C28.9562 18.1022 29.7302 17.7692 30.3602 17.1032C31.0082 16.4372 31.3321 15.5282 31.3321 14.3762Z" fill="#101828"/>
<path d="M48.2803 6.68123C50.0083 6.68123 51.3943 7.25723 52.4383 8.40923C53.4823 9.54323 54.0043 11.1092 54.0043 13.1072V21.9092H49.4143V13.7282C49.4143 12.7202 49.1533 11.9372 48.6313 11.3792C48.1093 10.8212 47.4073 10.5422 46.5253 10.5422C45.6433 10.5422 44.9413 10.8212 44.4193 11.3792C43.8973 11.9372 43.6363 12.7202 43.6363 13.7282V21.9092H39.0193V1.92923H43.6363V8.86823C44.1043 8.20223 44.7433 7.67123 45.5533 7.27523C46.3633 6.87923 47.2723 6.68123 48.2803 6.68123Z" fill="#101828"/>
<path d="M65.3397 17.9942V21.9092H62.9907C61.3167 21.9092 60.0117 21.5042 59.0757 20.6942C58.1397 19.8662 57.6717 18.5252 57.6717 16.6712V10.6772H55.8357V6.84323H57.6717V3.17123H62.2887V6.84323H65.3127V10.6772H62.2887V16.7252C62.2887 17.1752 62.3967 17.4992 62.6127 17.6972C62.8287 17.8952 63.1887 17.9942 63.6927 17.9942H65.3397Z" fill="#101828"/>
<path d="M72.2585 8.97623C72.6905 8.27423 73.3115 7.70723 74.1215 7.27523C74.9314 6.84323 75.8585 6.62723 76.9025 6.62723C78.1444 6.62723 79.2694 6.94223 80.2775 7.57223C81.2855 8.20223 82.0775 9.10223 82.6535 10.2722C83.2475 11.4422 83.5445 12.8012 83.5445 14.3492C83.5445 15.8972 83.2475 17.2652 82.6535 18.4532C82.0775 19.6232 81.2855 20.5322 80.2775 21.1802C79.2694 21.8102 78.1444 22.1252 76.9025 22.1252C75.8405 22.1252 74.9135 21.9182 74.1215 21.5042C73.3295 21.0722 72.7085 20.5052 72.2585 19.8032V21.9092H67.6415V1.92923H72.2585V8.97623ZM78.8465 14.3492C78.8465 13.1972 78.5225 12.2972 77.8745 11.6492C77.2445 10.9832 76.4614 10.6502 75.5255 10.6502C74.6075 10.6502 73.8245 10.9832 73.1765 11.6492C72.5465 12.3152 72.2315 13.2242 72.2315 14.3762C72.2315 15.5282 72.5465 16.4372 73.1765 17.1032C73.8245 17.7692 74.6075 18.1022 75.5255 18.1022C76.4435 18.1022 77.2264 17.7692 77.8745 17.1032C78.5225 16.4192 78.8465 15.5012 78.8465 14.3492Z" fill="#101828"/>
<path d="M92.5546 22.1252C91.0786 22.1252 89.7467 21.8102 88.5586 21.1802C87.3886 20.5502 86.4616 19.6502 85.7776 18.4802C85.1116 17.3102 84.7786 15.9422 84.7786 14.3762C84.7786 12.8282 85.1206 11.4692 85.8046 10.2992C86.4886 9.11123 87.4246 8.20223 88.6126 7.57223C89.8006 6.94223 91.1326 6.62723 92.6086 6.62723C94.0846 6.62723 95.4166 6.94223 96.6046 7.57223C97.7926 8.20223 98.7286 9.11123 99.4126 10.2992C100.097 11.4692 100.439 12.8282 100.439 14.3762C100.439 15.9242 100.088 17.2922 99.3856 18.4802C98.7016 19.6502 97.7566 20.5502 96.5506 21.1802C95.3626 21.8102 94.0306 22.1252 92.5546 22.1252ZM92.5546 18.1292C93.4366 18.1292 94.1836 17.8052 94.7956 17.1572C95.4256 16.5092 95.7406 15.5822 95.7406 14.3762C95.7406 13.1702 95.4346 12.2432 94.8226 11.5952C94.2286 10.9472 93.4906 10.6232 92.6086 10.6232C91.7086 10.6232 90.9616 10.9472 90.3676 11.5952C89.7736 12.2252 89.4766 13.1522 89.4766 14.3762C89.4766 15.5822 89.7646 16.5092 90.3406 17.1572C90.9346 17.8052 91.6726 18.1292 92.5546 18.1292Z" fill="#101828"/>
<path d="M111.528 21.9092L108.639 17.7242L106.209 21.9092H101.214L106.182 14.2142L101.079 6.84323H106.263L109.152 11.0012L111.582 6.84323H116.577L111.528 14.4302L116.712 21.9092H111.528Z" fill="#101828"/>
</svg>
