<svg width="115" height="23" viewBox="0 0 115 23" fill="none" xmlns="http://www.w3.org/2000/svg">
<path d="M0.380005 21.9092V18.4292H3.14001V4.38918H0.380005V0.909182H11.18C12.46 0.909182 13.57 1.12918 14.51 1.56918C15.47 1.98918 16.21 2.59918 16.73 3.39918C17.27 4.17918 17.54 5.11918 17.54 6.21918V6.51918C17.54 7.47918 17.36 8.26918 17 8.88918C16.64 9.48918 16.21 9.95918 15.71 10.2992C15.23 10.6192 14.77 10.8492 14.33 10.9892V11.5292C14.77 11.6492 15.25 11.8792 15.77 12.2192C16.29 12.5392 16.73 13.0092 17.09 13.6292C17.47 14.2492 17.66 15.0592 17.66 16.0592V16.3592C17.66 17.5192 17.39 18.5192 16.85 19.3592C16.31 20.1792 15.56 20.8092 14.6 21.2492C13.66 21.6892 12.56 21.9092 11.3 21.9092H0.380005ZM7.10001 18.3092H10.82C11.68 18.3092 12.37 18.0992 12.89 17.6792C13.43 17.2592 13.7 16.6592 13.7 15.8792V15.5792C13.7 14.7992 13.44 14.1992 12.92 13.7792C12.4 13.3592 11.7 13.1492 10.82 13.1492H7.10001V18.3092ZM7.10001 9.54918H10.76C11.58 9.54918 12.25 9.33918 12.77 8.91918C13.31 8.49918 13.58 7.91918 13.58 7.17918V6.87918C13.58 6.11918 13.32 5.53918 12.8 5.13918C12.28 4.71918 11.6 4.50918 10.76 4.50918H7.10001V9.54918Z" fill="#101828"/>
<path d="M26.6019 22.3292C25.1219 22.3292 23.7919 22.0292 22.6119 21.4292C21.4319 20.8292 20.5019 19.9592 19.8219 18.8192C19.1419 17.6792 18.8019 16.3092 18.8019 14.7092V14.2292C18.8019 12.6292 19.1419 11.2592 19.8219 10.1192C20.5019 8.97918 21.4319 8.10918 22.6119 7.50918C23.7919 6.90918 25.1219 6.60918 26.6019 6.60918C28.0819 6.60918 29.4119 6.90918 30.5919 7.50918C31.7719 8.10918 32.7019 8.97918 33.3819 10.1192C34.0619 11.2592 34.4019 12.6292 34.4019 14.2292V14.7092C34.4019 16.3092 34.0619 17.6792 33.3819 18.8192C32.7019 19.9592 31.7719 20.8292 30.5919 21.4292C29.4119 22.0292 28.0819 22.3292 26.6019 22.3292ZM26.6019 18.9692C27.7619 18.9692 28.7219 18.5992 29.4819 17.8592C30.2419 17.0992 30.6219 16.0192 30.6219 14.6192V14.3192C30.6219 12.9192 30.2419 11.8492 29.4819 11.1092C28.7419 10.3492 27.7819 9.96918 26.6019 9.96918C25.4419 9.96918 24.4819 10.3492 23.7219 11.1092C22.9619 11.8492 22.5819 12.9192 22.5819 14.3192V14.6192C22.5819 16.0192 22.9619 17.0992 23.7219 17.8592C24.4819 18.5992 25.4419 18.9692 26.6019 18.9692Z" fill="#101828"/>
<path d="M36.391 21.9092V0.909182H40.171V21.9092H36.391Z" fill="#101828"/>
<path d="M48.5598 21.9092C47.5798 21.9092 46.7798 21.6092 46.1598 21.0092C45.5598 20.3892 45.2598 19.5692 45.2598 18.5492V10.1492H41.5398V7.02918H45.2598V2.40918H49.0398V7.02918H53.1198V10.1492H49.0398V17.8892C49.0398 18.4892 49.3198 18.7892 49.8798 18.7892H52.7598V21.9092H48.5598Z" fill="#101828"/>
<path d="M61.2214 22.3292C59.2814 22.3292 57.6914 21.9092 56.4514 21.0692C55.2114 20.2292 54.4614 19.0292 54.2014 17.4692L57.6814 16.5692C57.8214 17.2692 58.0514 17.8192 58.3714 18.2192C58.7114 18.6192 59.1214 18.9092 59.6014 19.0892C60.1014 19.2492 60.6414 19.3292 61.2214 19.3292C62.1014 19.3292 62.7514 19.1792 63.1714 18.8792C63.5914 18.5592 63.8014 18.1692 63.8014 17.7092C63.8014 17.2492 63.6014 16.8992 63.2014 16.6592C62.8014 16.3992 62.1614 16.1892 61.2814 16.0292L60.4414 15.8792C59.4014 15.6792 58.4514 15.4092 57.5914 15.0692C56.7314 14.7092 56.0414 14.2192 55.5214 13.5992C55.0014 12.9792 54.7414 12.1792 54.7414 11.1992C54.7414 9.71918 55.2814 8.58918 56.3614 7.80918C57.4414 7.00918 58.8614 6.60918 60.6214 6.60918C62.2814 6.60918 63.6614 6.97918 64.7614 7.71918C65.8614 8.45918 66.5814 9.42918 66.9214 10.6292L63.4114 11.7092C63.2514 10.9492 62.9214 10.4092 62.4214 10.0892C61.9414 9.76918 61.3414 9.60918 60.6214 9.60918C59.9014 9.60918 59.3514 9.73918 58.9714 9.99918C58.5914 10.2392 58.4014 10.5792 58.4014 11.0192C58.4014 11.4992 58.6014 11.8592 59.0014 12.0992C59.4014 12.3192 59.9414 12.4892 60.6214 12.6092L61.4614 12.7592C62.5814 12.9592 63.5914 13.2292 64.4914 13.5692C65.4114 13.8892 66.1314 14.3592 66.6514 14.9792C67.1914 15.5792 67.4614 16.3992 67.4614 17.4392C67.4614 18.9992 66.8914 20.2092 65.7514 21.0692C64.6314 21.9092 63.1214 22.3292 61.2214 22.3292Z" fill="#101828"/>
<path d="M69.2738 21.9092V0.909182H73.0538V8.85918H73.5938C73.7538 8.53918 74.0038 8.21918 74.3438 7.89918C74.6838 7.57918 75.1338 7.31918 75.6938 7.11918C76.2738 6.89918 77.0038 6.78918 77.8838 6.78918C79.0438 6.78918 80.0538 7.05918 80.9138 7.59918C81.7938 8.11918 82.4738 8.84918 82.9538 9.78918C83.4338 10.7092 83.6738 11.7892 83.6738 13.0292V21.9092H79.8938V13.3292C79.8938 12.2092 79.6138 11.3692 79.0538 10.8092C78.5138 10.2492 77.7338 9.96918 76.7138 9.96918C75.5538 9.96918 74.6538 10.3592 74.0138 11.1392C73.3738 11.8992 73.0538 12.9692 73.0538 14.3492V21.9092H69.2738Z" fill="#101828"/>
<path d="M86.2602 21.9092V7.02918H90.0402V21.9092H86.2602ZM88.1502 5.28918C87.4702 5.28918 86.8902 5.06918 86.4102 4.62918C85.9502 4.18918 85.7202 3.60918 85.7202 2.88918C85.7202 2.16918 85.9502 1.58918 86.4102 1.14918C86.8902 0.709182 87.4702 0.489182 88.1502 0.489182C88.8502 0.489182 89.4302 0.709182 89.8902 1.14918C90.3502 1.58918 90.5802 2.16918 90.5802 2.88918C90.5802 3.60918 90.3502 4.18918 89.8902 4.62918C89.4302 5.06918 88.8502 5.28918 88.1502 5.28918Z" fill="#101828"/>
<path d="M95.1889 21.9092V10.1492H91.4089V7.02918H95.1889V4.26918C95.1889 3.24918 95.4889 2.43918 96.0889 1.83918C96.7089 1.21918 97.5089 0.909182 98.4889 0.909182H102.389V4.02918H99.8089C99.2489 4.02918 98.9689 4.32918 98.9689 4.92918V7.02918H102.869V10.1492H98.9689V21.9092H95.1889Z" fill="#101828"/>
<path d="M109.702 21.9092C108.722 21.9092 107.922 21.6092 107.302 21.0092C106.702 20.3892 106.402 19.5692 106.402 18.5492V10.1492H102.682V7.02918H106.402V2.40918H110.182V7.02918H114.262V10.1492H110.182V17.8892C110.182 18.4892 110.462 18.7892 111.022 18.7892H113.902V21.9092H109.702Z" fill="#101828"/>
</svg>
