<svg width="109" height="16" viewBox="0 0 109 16" fill="none" xmlns="http://www.w3.org/2000/svg">
<path d="M0.448975 0.505981V15.5H3.74597V9.30498H10.025V6.74298H3.74597V3.27798H10.991V0.505981H0.448975Z" fill="#101828"/>
<path d="M19.2602 8.90598H14.4092C14.4232 8.69598 14.4652 8.45798 14.5352 8.19198C14.6192 7.92598 14.7522 7.67398 14.9342 7.43598C15.1302 7.19798 15.3822 7.00198 15.6902 6.84798C16.0122 6.67998 16.4112 6.59598 16.8872 6.59598C17.6152 6.59598 18.1542 6.79198 18.5042 7.18398C18.8682 7.57598 19.1202 8.14998 19.2602 8.90598ZM14.4092 10.796H22.2422C22.2982 9.95598 22.2282 9.15098 22.0322 8.38098C21.8362 7.61098 21.5142 6.92498 21.0662 6.32298C20.6322 5.72098 20.0722 5.24498 19.3862 4.89498C18.7002 4.53098 17.8952 4.34898 16.9712 4.34898C16.1452 4.34898 15.3892 4.49598 14.7032 4.78998C14.0312 5.08398 13.4502 5.48998 12.9602 6.00798C12.4702 6.51198 12.0922 7.11398 11.8262 7.81398C11.5602 8.51398 11.4272 9.26998 11.4272 10.082C11.4272 10.922 11.5532 11.692 11.8052 12.392C12.0712 13.092 12.4422 13.694 12.9182 14.198C13.3942 14.702 13.9752 15.094 14.6612 15.374C15.3472 15.64 16.1172 15.773 16.9712 15.773C18.2032 15.773 19.2532 15.493 20.1212 14.933C20.9892 14.373 21.6332 13.442 22.0532 12.14H19.4282C19.3302 12.476 19.0642 12.798 18.6302 13.106C18.1962 13.4 17.6782 13.547 17.0762 13.547C16.2362 13.547 15.5922 13.33 15.1442 12.896C14.6962 12.462 14.4512 11.762 14.4092 10.796Z" fill="#101828"/>
<path d="M23.2548 7.98198C23.2968 7.28198 23.4718 6.70098 23.7798 6.23898C24.0878 5.77698 24.4798 5.40598 24.9558 5.12598C25.4318 4.84598 25.9638 4.64998 26.5518 4.53798C27.1538 4.41198 27.7558 4.34898 28.3578 4.34898C28.9038 4.34898 29.4568 4.39098 30.0168 4.47498C30.5768 4.54498 31.0878 4.69198 31.5498 4.91598C32.0118 5.13998 32.3898 5.45498 32.6838 5.86098C32.9778 6.25298 33.1248 6.77798 33.1248 7.43598V13.085C33.1248 13.575 33.1528 14.044 33.2088 14.492C33.2648 14.94 33.3628 15.276 33.5028 15.5H30.4788C30.4228 15.332 30.3738 15.164 30.3318 14.996C30.3038 14.814 30.2828 14.632 30.2688 14.45C29.7928 14.94 29.2328 15.283 28.5888 15.479C27.9448 15.675 27.2868 15.773 26.6148 15.773C26.0968 15.773 25.6138 15.71 25.1658 15.584C24.7178 15.458 24.3258 15.262 23.9898 14.996C23.6538 14.73 23.3878 14.394 23.1918 13.988C23.0098 13.582 22.9188 13.099 22.9188 12.539C22.9188 11.923 23.0238 11.419 23.2338 11.027C23.4578 10.621 23.7378 10.299 24.0738 10.061C24.4238 9.82298 24.8158 9.64798 25.2498 9.53598C25.6978 9.40998 26.1458 9.31198 26.5938 9.24198C27.0418 9.17198 27.4828 9.11598 27.9168 9.07398C28.3508 9.03198 28.7358 8.96898 29.0718 8.88498C29.4078 8.80098 29.6738 8.68198 29.8698 8.52798C30.0658 8.35998 30.1568 8.12198 30.1428 7.81398C30.1428 7.49198 30.0868 7.23998 29.9748 7.05798C29.8768 6.86198 29.7368 6.71498 29.5548 6.61698C29.3868 6.50498 29.1838 6.43498 28.9458 6.40698C28.7218 6.36498 28.4768 6.34398 28.2108 6.34398C27.6228 6.34398 27.1608 6.46998 26.8248 6.72198C26.4888 6.97398 26.2928 7.39398 26.2368 7.98198H23.2548ZM30.1428 10.187C30.0168 10.299 29.8558 10.39 29.6598 10.46C29.4778 10.516 29.2748 10.565 29.0508 10.607C28.8408 10.649 28.6168 10.684 28.3788 10.712C28.1408 10.74 27.9028 10.775 27.6648 10.817C27.4408 10.859 27.2168 10.915 26.9928 10.985C26.7828 11.055 26.5938 11.153 26.4258 11.279C26.2718 11.391 26.1458 11.538 26.0478 11.72C25.9498 11.902 25.9008 12.133 25.9008 12.413C25.9008 12.679 25.9498 12.903 26.0478 13.085C26.1458 13.267 26.2788 13.414 26.4468 13.526C26.6148 13.624 26.8108 13.694 27.0348 13.736C27.2588 13.778 27.4898 13.799 27.7278 13.799C28.3158 13.799 28.7708 13.701 29.0928 13.505C29.4148 13.309 29.6528 13.078 29.8068 12.812C29.9608 12.532 30.0518 12.252 30.0798 11.972C30.1218 11.692 30.1428 11.468 30.1428 11.3V10.187Z" fill="#101828"/>
<path d="M38.5894 4.64298V1.38798H35.6074V4.64298H33.8014V6.63798H35.6074V13.043C35.6074 13.589 35.6984 14.03 35.8804 14.366C36.0624 14.702 36.3074 14.961 36.6154 15.143C36.9374 15.325 37.3014 15.444 37.7074 15.5C38.1274 15.57 38.5684 15.605 39.0304 15.605C39.3244 15.605 39.6254 15.598 39.9334 15.584C40.2414 15.57 40.5214 15.542 40.7734 15.5V13.19C40.6334 13.218 40.4864 13.239 40.3324 13.253C40.1784 13.267 40.0174 13.274 39.8494 13.274C39.3454 13.274 39.0094 13.19 38.8414 13.022C38.6734 12.854 38.5894 12.518 38.5894 12.014V6.63798H40.7734V4.64298H38.5894Z" fill="#101828"/>
<path d="M41.5622 0.505981V15.5H44.5442V9.80898C44.5442 8.70298 44.7262 7.91198 45.0902 7.43598C45.4542 6.94598 46.0422 6.70098 46.8542 6.70098C47.5682 6.70098 48.0652 6.92498 48.3452 7.37298C48.6252 7.80698 48.7652 8.47198 48.7652 9.36798V15.5H51.7472V8.82198C51.7472 8.14998 51.6842 7.54098 51.5582 6.99498C51.4462 6.43498 51.2432 5.96598 50.9492 5.58798C50.6552 5.19598 50.2492 4.89498 49.7312 4.68498C49.2272 4.46098 48.5762 4.34898 47.7782 4.34898C47.2182 4.34898 46.6442 4.49598 46.0562 4.78998C45.4682 5.06998 44.9852 5.52498 44.6072 6.15498H44.5442V0.505981H41.5622Z" fill="#101828"/>
<path d="M60.6885 8.90598H55.8375C55.8515 8.69598 55.8935 8.45798 55.9635 8.19198C56.0475 7.92598 56.1805 7.67398 56.3625 7.43598C56.5585 7.19798 56.8105 7.00198 57.1185 6.84798C57.4405 6.67998 57.8395 6.59598 58.3155 6.59598C59.0435 6.59598 59.5825 6.79198 59.9325 7.18398C60.2965 7.57598 60.5485 8.14998 60.6885 8.90598ZM55.8375 10.796H63.6705C63.7265 9.95598 63.6565 9.15098 63.4605 8.38098C63.2645 7.61098 62.9425 6.92498 62.4945 6.32298C62.0605 5.72098 61.5005 5.24498 60.8145 4.89498C60.1285 4.53098 59.3235 4.34898 58.3995 4.34898C57.5735 4.34898 56.8175 4.49598 56.1315 4.78998C55.4595 5.08398 54.8785 5.48998 54.3885 6.00798C53.8985 6.51198 53.5205 7.11398 53.2545 7.81398C52.9885 8.51398 52.8555 9.26998 52.8555 10.082C52.8555 10.922 52.9815 11.692 53.2335 12.392C53.4995 13.092 53.8705 13.694 54.3465 14.198C54.8225 14.702 55.4035 15.094 56.0895 15.374C56.7755 15.64 57.5455 15.773 58.3995 15.773C59.6315 15.773 60.6815 15.493 61.5495 14.933C62.4175 14.373 63.0615 13.442 63.4815 12.14H60.8565C60.7585 12.476 60.4925 12.798 60.0585 13.106C59.6245 13.4 59.1065 13.547 58.5045 13.547C57.6645 13.547 57.0205 13.33 56.5725 12.896C56.1245 12.462 55.8795 11.762 55.8375 10.796Z" fill="#101828"/>
<path d="M64.8091 4.64298V15.5H67.791V10.607C67.791 10.117 67.84 9.66198 67.938 9.24198C68.036 8.82198 68.1971 8.45798 68.4211 8.14998C68.659 7.82798 68.967 7.57598 69.345 7.39398C69.723 7.21198 70.185 7.12098 70.731 7.12098C70.913 7.12098 71.1021 7.13498 71.298 7.16298C71.494 7.17698 71.662 7.19798 71.802 7.22598V4.45398C71.564 4.38398 71.347 4.34898 71.151 4.34898C70.773 4.34898 70.409 4.40498 70.0591 4.51698C69.709 4.62898 69.38 4.78998 69.072 4.99998C68.764 5.19598 68.4911 5.44098 68.2531 5.73498C68.0151 6.01498 67.826 6.32298 67.6861 6.65898H67.6441V4.64298H64.8091Z" fill="#101828"/>
<path d="M75.9532 12.728V3.27798H78.3052C79.1172 3.27798 79.7962 3.39698 80.3422 3.63498C80.9022 3.85898 81.3502 4.18798 81.6862 4.62198C82.0222 5.05598 82.2602 5.58098 82.4002 6.19698C82.5542 6.79898 82.6312 7.47798 82.6312 8.23398C82.6312 9.05998 82.5262 9.75998 82.3162 10.334C82.1062 10.908 81.8262 11.377 81.4762 11.741C81.1262 12.091 80.7272 12.343 80.2792 12.497C79.8312 12.651 79.3692 12.728 78.8932 12.728H75.9532ZM72.6562 0.505981V15.5H79.1242C80.2722 15.5 81.2662 15.311 82.1062 14.933C82.9602 14.541 83.6672 14.009 84.2272 13.337C84.8012 12.665 85.2282 11.867 85.5082 10.943C85.7882 10.019 85.9282 9.01098 85.9282 7.91898C85.9282 6.67298 85.7532 5.58798 85.4032 4.66398C85.0672 3.73998 84.5912 2.96998 83.9752 2.35398C83.3732 1.73798 82.6522 1.27598 81.8122 0.967982C80.9862 0.659982 80.0902 0.505981 79.1242 0.505981H72.6562Z" fill="#101828"/>
<path d="M94.5846 8.90598H89.7336C89.7476 8.69598 89.7896 8.45798 89.8596 8.19198C89.9436 7.92598 90.0766 7.67398 90.2586 7.43598C90.4546 7.19798 90.7066 7.00198 91.0146 6.84798C91.3366 6.67998 91.7356 6.59598 92.2116 6.59598C92.9396 6.59598 93.4786 6.79198 93.8286 7.18398C94.1926 7.57598 94.4446 8.14998 94.5846 8.90598ZM89.7336 10.796H97.5666C97.6226 9.95598 97.5526 9.15098 97.3566 8.38098C97.1606 7.61098 96.8386 6.92498 96.3906 6.32298C95.9566 5.72098 95.3966 5.24498 94.7106 4.89498C94.0246 4.53098 93.2196 4.34898 92.2956 4.34898C91.4696 4.34898 90.7136 4.49598 90.0276 4.78998C89.3556 5.08398 88.7746 5.48998 88.2846 6.00798C87.7946 6.51198 87.4166 7.11398 87.1506 7.81398C86.8846 8.51398 86.7516 9.26998 86.7516 10.082C86.7516 10.922 86.8776 11.692 87.1296 12.392C87.3956 13.092 87.7666 13.694 88.2426 14.198C88.7186 14.702 89.2996 15.094 89.9856 15.374C90.6716 15.64 91.4416 15.773 92.2956 15.773C93.5276 15.773 94.5776 15.493 95.4456 14.933C96.3136 14.373 96.9576 13.442 97.3776 12.14H94.7526C94.6546 12.476 94.3886 12.798 93.9546 13.106C93.5206 13.4 93.0026 13.547 92.4006 13.547C91.5606 13.547 90.9166 13.33 90.4686 12.896C90.0206 12.462 89.7756 11.762 89.7336 10.796Z" fill="#101828"/>
<path d="M104.711 15.5L108.386 4.64298H105.425L103.136 12.056H103.094L100.805 4.64298H97.6762L101.393 15.5H104.711Z" fill="#101828"/>
</svg>
