<svg width="88" height="22" viewBox="0 0 88 22" fill="none" xmlns="http://www.w3.org/2000/svg">
<path d="M4.0933 13.7589H8.62931V16.4319H0.630554V2.21642H4.0933V13.7589Z" fill="#101828"/>
<path d="M11.8199 3.95792C11.2124 3.95792 10.7129 3.78242 10.3214 3.43142C9.94345 3.06692 9.75445 2.62142 9.75445 2.09492C9.75445 1.55492 9.94345 1.10942 10.3214 0.75842C10.7129 0.39392 11.2124 0.21167 11.8199 0.21167C12.4139 0.21167 12.8999 0.39392 13.2779 0.75842C13.6694 1.10942 13.8652 1.55492 13.8652 2.09492C13.8652 2.62142 13.6694 3.06692 13.2779 3.43142C12.8999 3.78242 12.4139 3.95792 11.8199 3.95792ZM13.5412 5.13242V16.4319H10.0784V5.13242H13.5412Z" fill="#101828"/>
<path d="M20.1411 4.97042C20.9376 4.97042 21.6329 5.13242 22.2269 5.45642C22.8344 5.78042 23.3001 6.20567 23.6241 6.73217V5.13242H27.0869V16.4117C27.0869 17.4512 26.8776 18.3894 26.4591 19.2264C26.0541 20.0769 25.4264 20.7519 24.5759 21.2514C23.7389 21.7509 22.6926 22.0007 21.4371 22.0007C19.7631 22.0007 18.4064 21.6024 17.3669 20.8059C16.3274 20.0229 15.7334 18.9564 15.5849 17.6064H19.0071C19.1151 18.0384 19.3716 18.3759 19.7766 18.6189C20.1816 18.8754 20.6811 19.0037 21.2751 19.0037C21.9906 19.0037 22.5576 18.7944 22.9761 18.3759C23.4081 17.9709 23.6241 17.3162 23.6241 16.4117V14.8119C23.2866 15.3384 22.8209 15.7704 22.2269 16.1079C21.6329 16.4319 20.9376 16.5939 20.1411 16.5939C19.2096 16.5939 18.3659 16.3577 17.6099 15.8852C16.8539 15.3992 16.2531 14.7174 15.8076 13.8399C15.3756 12.9489 15.1596 11.9229 15.1596 10.7619C15.1596 9.60092 15.3756 8.58167 15.8076 7.70417C16.2531 6.82667 16.8539 6.15167 17.6099 5.67917C18.3659 5.20667 19.2096 4.97042 20.1411 4.97042ZM23.6241 10.7822C23.6241 9.91817 23.3811 9.23642 22.8951 8.73692C22.4226 8.23742 21.8421 7.98767 21.1536 7.98767C20.4651 7.98767 19.8779 8.23742 19.3919 8.73692C18.9194 9.22292 18.6831 9.89792 18.6831 10.7619C18.6831 11.6259 18.9194 12.3144 19.3919 12.8274C19.8779 13.3269 20.4651 13.5767 21.1536 13.5767C21.8421 13.5767 22.4226 13.3269 22.8951 12.8274C23.3811 12.3279 23.6241 11.6462 23.6241 10.7822Z" fill="#101828"/>
<path d="M36.3353 5.01092C37.6313 5.01092 38.6708 5.44292 39.4538 6.30692C40.2368 7.15742 40.6283 8.33192 40.6283 9.83042V16.4319H37.1858V10.2962C37.1858 9.54017 36.99 8.95292 36.5985 8.53442C36.207 8.11592 35.6805 7.90667 35.019 7.90667C34.3575 7.90667 33.831 8.11592 33.4395 8.53442C33.048 8.95292 32.8523 9.54017 32.8523 10.2962V16.4319H29.3895V1.44692H32.8523V6.65117C33.2033 6.15167 33.6825 5.75342 34.29 5.45642C34.8975 5.15942 35.5793 5.01092 36.3353 5.01092Z" fill="#101828"/>
<path d="M49.1298 13.4957V16.4319H47.368C46.1125 16.4319 45.1338 16.1282 44.4318 15.5207C43.7298 14.8997 43.3788 13.8939 43.3788 12.5034V8.00792H42.0018V5.13242H43.3788V2.37842H46.8415V5.13242H49.1095V8.00792H46.8415V12.5439C46.8415 12.8814 46.9225 13.1244 47.0845 13.2729C47.2465 13.4214 47.5165 13.4957 47.8945 13.4957H49.1298Z" fill="#101828"/>
<path d="M54.3188 6.73217C54.6428 6.20567 55.1086 5.78042 55.7161 5.45642C56.3236 5.13242 57.0188 4.97042 57.8018 4.97042C58.7333 4.97042 59.5771 5.20667 60.3331 5.67917C61.0891 6.15167 61.6831 6.82667 62.1151 7.70417C62.5606 8.58167 62.7833 9.60092 62.7833 10.7619C62.7833 11.9229 62.5606 12.9489 62.1151 13.8399C61.6831 14.7174 61.0891 15.3992 60.3331 15.8852C59.5771 16.3577 58.7333 16.5939 57.8018 16.5939C57.0053 16.5939 56.3101 16.4387 55.7161 16.1282C55.1221 15.8042 54.6563 15.3789 54.3188 14.8524V16.4319H50.8561V1.44692H54.3188V6.73217ZM59.2598 10.7619C59.2598 9.89792 59.0168 9.22292 58.5308 8.73692C58.0583 8.23742 57.4711 7.98767 56.7691 7.98767C56.0806 7.98767 55.4933 8.23742 55.0073 8.73692C54.5348 9.23642 54.2986 9.91817 54.2986 10.7822C54.2986 11.6462 54.5348 12.3279 55.0073 12.8274C55.4933 13.3269 56.0806 13.5767 56.7691 13.5767C57.4576 13.5767 58.0448 13.3269 58.5308 12.8274C59.0168 12.3144 59.2598 11.6259 59.2598 10.7619Z" fill="#101828"/>
<path d="M69.541 16.5939C68.434 16.5939 67.435 16.3577 66.544 15.8852C65.6665 15.4127 64.9712 14.7377 64.4582 13.8602C63.9587 12.9827 63.709 11.9567 63.709 10.7822C63.709 9.62117 63.9655 8.60192 64.4785 7.72442C64.9915 6.83342 65.6935 6.15167 66.5845 5.67917C67.4755 5.20667 68.4745 4.97042 69.5815 4.97042C70.6885 4.97042 71.6875 5.20667 72.5785 5.67917C73.4695 6.15167 74.1715 6.83342 74.6845 7.72442C75.1975 8.60192 75.454 9.62117 75.454 10.7822C75.454 11.9432 75.1907 12.9692 74.6642 13.8602C74.1512 14.7377 73.4425 15.4127 72.538 15.8852C71.647 16.3577 70.648 16.5939 69.541 16.5939ZM69.541 13.5969C70.2025 13.5969 70.7627 13.3539 71.2217 12.8679C71.6942 12.3819 71.9305 11.6867 71.9305 10.7822C71.9305 9.87767 71.701 9.18242 71.242 8.69642C70.7965 8.21042 70.243 7.96742 69.5815 7.96742C68.9065 7.96742 68.3462 8.21042 67.9007 8.69642C67.4552 9.16892 67.2325 9.86417 67.2325 10.7822C67.2325 11.6867 67.4485 12.3819 67.8805 12.8679C68.326 13.3539 68.8795 13.5969 69.541 13.5969Z" fill="#101828"/>
<path d="M83.771 16.4319L81.6043 13.2932L79.7818 16.4319H76.0355L79.7615 10.6607L75.9343 5.13242H79.8223L81.989 8.25092L83.8115 5.13242H87.5578L83.771 10.8227L87.659 16.4319H83.771Z" fill="#101828"/>
</svg>
