<svg width="145" height="21" viewBox="0 0 145 21" fill="none" xmlns="http://www.w3.org/2000/svg">
<path d="M0.932007 0.00799561V20H5.32801V11.74H13.7V8.324H5.32801V3.704H14.988V0.00799561H0.932007Z" fill="#101828"/>
<path d="M26.0137 11.208H19.5457C19.5643 10.928 19.6203 10.6107 19.7137 10.256C19.8257 9.90133 20.003 9.56533 20.2457 9.248C20.507 8.93066 20.843 8.66933 21.2537 8.464C21.683 8.24 22.215 8.128 22.8497 8.128C23.8203 8.128 24.539 8.38933 25.0057 8.912C25.491 9.43466 25.827 10.2 26.0137 11.208ZM19.5457 13.728H29.9897C30.0643 12.608 29.971 11.5347 29.7097 10.508C29.4483 9.48133 29.019 8.56666 28.4217 7.764C27.843 6.96133 27.0963 6.32666 26.1817 5.86C25.267 5.37466 24.1937 5.132 22.9617 5.132C21.8603 5.132 20.8523 5.328 19.9377 5.72C19.0417 6.112 18.267 6.65333 17.6137 7.344C16.9603 8.016 16.4563 8.81866 16.1017 9.752C15.747 10.6853 15.5697 11.6933 15.5697 12.776C15.5697 13.896 15.7377 14.9227 16.0737 15.856C16.4283 16.7893 16.923 17.592 17.5577 18.264C18.1923 18.936 18.967 19.4587 19.8817 19.832C20.7963 20.1867 21.823 20.364 22.9617 20.364C24.6043 20.364 26.0043 19.9907 27.1617 19.244C28.319 18.4973 29.1777 17.256 29.7377 15.52H26.2377C26.107 15.968 25.7523 16.3973 25.1737 16.808C24.595 17.2 23.9043 17.396 23.1017 17.396C21.9817 17.396 21.123 17.1067 20.5257 16.528C19.9283 15.9493 19.6017 15.016 19.5457 13.728Z" fill="#101828"/>
<path d="M31.3398 9.976C31.3958 9.04266 31.6291 8.268 32.0398 7.652C32.4505 7.036 32.9731 6.54133 33.6078 6.168C34.2425 5.79466 34.9518 5.53333 35.7358 5.384C36.5385 5.216 37.3411 5.132 38.1438 5.132C38.8718 5.132 39.6091 5.188 40.3558 5.3C41.1025 5.39333 41.7838 5.58933 42.3998 5.888C43.0158 6.18666 43.5198 6.60666 43.9118 7.148C44.3038 7.67066 44.4998 8.37066 44.4998 9.248V16.78C44.4998 17.4333 44.5371 18.0587 44.6118 18.656C44.6865 19.2533 44.8171 19.7013 45.0038 20H40.9718C40.8971 19.776 40.8318 19.552 40.7758 19.328C40.7385 19.0853 40.7105 18.8427 40.6918 18.6C40.0571 19.2533 39.3105 19.7107 38.4518 19.972C37.5931 20.2333 36.7158 20.364 35.8198 20.364C35.1291 20.364 34.4851 20.28 33.8878 20.112C33.2905 19.944 32.7678 19.6827 32.3198 19.328C31.8718 18.9733 31.5171 18.5253 31.2558 17.984C31.0131 17.4427 30.8918 16.7987 30.8918 16.052C30.8918 15.2307 31.0318 14.5587 31.3118 14.036C31.6105 13.4947 31.9838 13.0653 32.4318 12.748C32.8985 12.4307 33.4211 12.1973 33.9998 12.048C34.5971 11.88 35.1945 11.7493 35.7918 11.656C36.3891 11.5627 36.9771 11.488 37.5558 11.432C38.1345 11.376 38.6478 11.292 39.0958 11.18C39.5438 11.068 39.8985 10.9093 40.1598 10.704C40.4211 10.48 40.5425 10.1627 40.5238 9.752C40.5238 9.32266 40.4491 8.98666 40.2998 8.744C40.1691 8.48266 39.9825 8.28666 39.7398 8.156C39.5158 8.00666 39.2451 7.91333 38.9278 7.876C38.6291 7.82 38.3025 7.792 37.9478 7.792C37.1638 7.792 36.5478 7.96 36.0998 8.296C35.6518 8.632 35.3905 9.192 35.3158 9.976H31.3398ZM40.5238 12.916C40.3558 13.0653 40.1411 13.1867 39.8798 13.28C39.6371 13.3547 39.3665 13.42 39.0678 13.476C38.7878 13.532 38.4891 13.5787 38.1718 13.616C37.8545 13.6533 37.5371 13.7 37.2198 13.756C36.9211 13.812 36.6225 13.8867 36.3238 13.98C36.0438 14.0733 35.7918 14.204 35.5678 14.372C35.3625 14.5213 35.1945 14.7173 35.0638 14.96C34.9331 15.2027 34.8678 15.5107 34.8678 15.884C34.8678 16.2387 34.9331 16.5373 35.0638 16.78C35.1945 17.0227 35.3718 17.2187 35.5958 17.368C35.8198 17.4987 36.0811 17.592 36.3798 17.648C36.6785 17.704 36.9865 17.732 37.3038 17.732C38.0878 17.732 38.6945 17.6013 39.1238 17.34C39.5531 17.0787 39.8705 16.7707 40.0758 16.416C40.2811 16.0427 40.4025 15.6693 40.4398 15.296C40.4958 14.9227 40.5238 14.624 40.5238 14.4V12.916Z" fill="#101828"/>
<path d="M51.7859 5.524V1.184H47.8099V5.524H45.4019V8.184H47.8099V16.724C47.8099 17.452 47.9312 18.04 48.1739 18.488C48.4166 18.936 48.7432 19.2813 49.1539 19.524C49.5832 19.7667 50.0686 19.9253 50.6099 20C51.1699 20.0933 51.7579 20.14 52.3739 20.14C52.7659 20.14 53.1672 20.1307 53.5779 20.112C53.9886 20.0933 54.3619 20.056 54.6979 20V16.92C54.5112 16.9573 54.3152 16.9853 54.1099 17.004C53.9046 17.0227 53.6899 17.032 53.4659 17.032C52.7939 17.032 52.3459 16.92 52.1219 16.696C51.8979 16.472 51.7859 16.024 51.7859 15.352V8.184H54.6979V5.524H51.7859Z" fill="#101828"/>
<path d="M55.7497 0.00799561V20H59.7257V12.412C59.7257 10.9373 59.9683 9.88266 60.4537 9.248C60.939 8.59466 61.723 8.268 62.8057 8.268C63.7577 8.268 64.4203 8.56666 64.7937 9.164C65.167 9.74266 65.3537 10.6293 65.3537 11.824V20H69.3297V11.096C69.3297 10.2 69.2457 9.388 69.0777 8.66C68.9283 7.91333 68.6577 7.288 68.2657 6.784C67.8737 6.26133 67.3323 5.86 66.6417 5.58C65.9697 5.28133 65.1017 5.132 64.0377 5.132C63.291 5.132 62.5257 5.328 61.7417 5.72C60.9577 6.09333 60.3137 6.7 59.8097 7.54H59.7257V0.00799561H55.7497Z" fill="#101828"/>
<path d="M81.2513 11.208H74.7833C74.802 10.928 74.858 10.6107 74.9513 10.256C75.0633 9.90133 75.2407 9.56533 75.4833 9.248C75.7447 8.93066 76.0807 8.66933 76.4913 8.464C76.9207 8.24 77.4527 8.128 78.0873 8.128C79.058 8.128 79.7767 8.38933 80.2433 8.912C80.7287 9.43466 81.0647 10.2 81.2513 11.208ZM74.7833 13.728H85.2273C85.302 12.608 85.2087 11.5347 84.9473 10.508C84.686 9.48133 84.2567 8.56666 83.6593 7.764C83.0807 6.96133 82.334 6.32666 81.4193 5.86C80.5047 5.37466 79.4313 5.132 78.1993 5.132C77.098 5.132 76.09 5.328 75.1753 5.72C74.2793 6.112 73.5047 6.65333 72.8513 7.344C72.198 8.016 71.694 8.81866 71.3393 9.752C70.9847 10.6853 70.8073 11.6933 70.8073 12.776C70.8073 13.896 70.9753 14.9227 71.3113 15.856C71.666 16.7893 72.1607 17.592 72.7953 18.264C73.43 18.936 74.2047 19.4587 75.1193 19.832C76.034 20.1867 77.0607 20.364 78.1993 20.364C79.842 20.364 81.242 19.9907 82.3993 19.244C83.5567 18.4973 84.4153 17.256 84.9753 15.52H81.4753C81.3447 15.968 80.99 16.3973 80.4113 16.808C79.8327 17.2 79.142 17.396 78.3393 17.396C77.2193 17.396 76.3607 17.1067 75.7633 16.528C75.166 15.9493 74.8393 15.016 74.7833 13.728Z" fill="#101828"/>
<path d="M86.7454 5.524V20H90.7214V13.476C90.7214 12.8227 90.7868 12.216 90.9174 11.656C91.0481 11.096 91.2628 10.6107 91.5614 10.2C91.8788 9.77066 92.2894 9.43466 92.7934 9.192C93.2974 8.94933 93.9134 8.828 94.6414 8.828C94.8841 8.828 95.1361 8.84666 95.3974 8.884C95.6588 8.90266 95.8828 8.93066 96.0694 8.968V5.272C95.7521 5.17866 95.4628 5.132 95.2014 5.132C94.6974 5.132 94.2121 5.20666 93.7454 5.356C93.2788 5.50533 92.8401 5.72 92.4294 6C92.0188 6.26133 91.6548 6.588 91.3374 6.98C91.0201 7.35333 90.7681 7.764 90.5814 8.212H90.5254V5.524H86.7454Z" fill="#101828"/>
<path d="M101.604 16.304V3.704H104.74C105.823 3.704 106.728 3.86266 107.456 4.18C108.203 4.47866 108.8 4.91733 109.248 5.496C109.696 6.07466 110.014 6.77466 110.2 7.596C110.406 8.39866 110.508 9.304 110.508 10.312C110.508 11.4133 110.368 12.3467 110.088 13.112C109.808 13.8773 109.435 14.5027 108.968 14.988C108.502 15.4547 107.97 15.7907 107.372 15.996C106.775 16.2013 106.159 16.304 105.524 16.304H101.604ZM97.2083 0.00799561V20H105.832C107.363 20 108.688 19.748 109.808 19.244C110.947 18.7213 111.89 18.012 112.636 17.116C113.402 16.22 113.971 15.156 114.344 13.924C114.718 12.692 114.904 11.348 114.904 9.892C114.904 8.23066 114.671 6.784 114.204 5.552C113.756 4.32 113.122 3.29333 112.3 2.472C111.498 1.65066 110.536 1.03466 109.416 0.623996C108.315 0.213329 107.12 0.00799561 105.832 0.00799561H97.2083Z" fill="#101828"/>
<path d="M126.446 11.208H119.978C119.997 10.928 120.053 10.6107 120.146 10.256C120.258 9.90133 120.435 9.56533 120.678 9.248C120.939 8.93066 121.275 8.66933 121.686 8.464C122.116 8.24 122.647 8.128 123.282 8.128C124.253 8.128 124.971 8.38933 125.438 8.912C125.924 9.43466 126.259 10.2 126.446 11.208ZM119.978 13.728H130.422C130.497 12.608 130.403 11.5347 130.142 10.508C129.881 9.48133 129.451 8.56666 128.854 7.764C128.275 6.96133 127.529 6.32666 126.614 5.86C125.7 5.37466 124.626 5.132 123.394 5.132C122.293 5.132 121.285 5.328 120.37 5.72C119.474 6.112 118.7 6.65333 118.046 7.344C117.393 8.016 116.889 8.81866 116.534 9.752C116.179 10.6853 116.002 11.6933 116.002 12.776C116.002 13.896 116.17 14.9227 116.506 15.856C116.861 16.7893 117.355 17.592 117.99 18.264C118.625 18.936 119.399 19.4587 120.314 19.832C121.229 20.1867 122.256 20.364 123.394 20.364C125.037 20.364 126.437 19.9907 127.594 19.244C128.752 18.4973 129.61 17.256 130.17 15.52H126.67C126.539 15.968 126.185 16.3973 125.606 16.808C125.027 17.2 124.337 17.396 123.534 17.396C122.414 17.396 121.555 17.1067 120.958 16.528C120.361 15.9493 120.034 15.016 119.978 13.728Z" fill="#101828"/>
<path d="M139.948 20L144.848 5.524H140.9L137.848 15.408H137.792L134.74 5.524H130.568L135.524 20H139.948Z" fill="#101828"/>
</svg>
