<svg width="182" height="88" viewBox="0 0 182 88" fill="none" xmlns="http://www.w3.org/2000/svg">
<path fill-rule="evenodd" clip-rule="evenodd" d="M109.561 35.6088C110.851 38.9143 113.973 38.3632 113.973 38.3632V41.2094C113.973 41.2094 101.988 41.5779 97.9916 42.1896C94.1834 42.7742 93.3018 43.9142 90.5491 46.2449V54.6464C90.5491 55.5238 89.795 56.2381 88.8735 56.2381C87.9511 56.2381 87.197 55.5217 87.197 54.6464V47.5092C81.8417 48.0527 72.2117 45.9856 72.2117 45.9856C64.2743 21.7072 100.116 11.3856 109.561 35.6088Z" fill="#0C0C18"/>
<path d="M13.3711 69.23H14.7809V69.5605L12.1856 74.774H10.6157L8.02039 69.5605V69.23H9.43018L11.3983 73.4478L13.3711 69.23Z" fill="#0C0C18"/>
<path d="M22.64 69.23V70.5518H18.6212V71.3824H21.7703V72.7042H18.6212V73.4478H22.64V74.774H17.0558V69.23H22.64Z" fill="#0C0C18"/>
<path d="M28.6684 74.774H27.1028V70.5518H24.8371V69.23H30.9431V70.5518H28.6684V74.774Z" fill="#0C0C18"/>
<path d="M38.8023 69.23V70.5518H34.7882V71.3824H37.9326V72.7042H34.7882V73.4478H38.8023V74.774H33.2181V69.23H38.8023Z" fill="#0C0C18"/>
<path d="M47.2152 74.7739H45.6956L44.5284 73.0346C44.2141 73.0346 43.912 73.0317 43.6221 73.0259C43.3322 73.0201 43.0484 72.9955 42.7707 72.952V74.7739H41.2007V69.2299C41.7012 69.1748 42.226 69.1328 42.7753 69.1038C43.3215 69.0748 43.8601 69.0603 44.3911 69.0603H44.6337C45.1219 69.0603 45.5262 69.1096 45.8466 69.2081C46.164 69.3038 46.4188 69.4342 46.6111 69.5995C46.8033 69.7647 46.9376 69.9575 47.0138 70.1778C47.0901 70.401 47.1283 70.6358 47.1283 70.8822V71.2127C47.1283 71.5605 47.055 71.8765 46.9086 72.1606C46.7621 72.4447 46.5027 72.665 46.1304 72.8215L47.2152 74.4434V74.7739ZM44.4094 70.3865C44.2049 70.3865 43.9532 70.3923 43.6542 70.4039C43.3551 70.4155 43.0606 70.4343 42.7707 70.4604V71.6388C43.0423 71.6707 43.3002 71.691 43.5443 71.6997C43.7884 71.7084 43.9868 71.7127 44.1393 71.7127C44.4872 71.7127 44.7573 71.6968 44.9495 71.6649C45.1387 71.6359 45.2791 71.591 45.3706 71.5301C45.4591 71.4692 45.5125 71.391 45.5308 71.2953C45.5491 71.2025 45.5583 71.0895 45.5583 70.9561C45.5583 70.8866 45.5522 70.817 45.54 70.7474C45.5278 70.6778 45.485 70.6155 45.4118 70.5604C45.3416 70.5054 45.2272 70.4633 45.0685 70.4343C44.9129 70.4025 44.6932 70.3865 44.4094 70.3865Z" fill="#0C0C18"/>
<path d="M50.8223 74.774H49.4079V74.4435L52.0078 69.23H53.5732L56.1731 74.4435V74.774H54.7587L54.2552 73.7H51.3166L50.8223 74.774ZM51.9025 72.4564H53.6785L52.7905 70.5605L51.9025 72.4564Z" fill="#0C0C18"/>
<path d="M60.0134 69.23L63.071 72.7868V69.23H64.641V74.774H63.071L60.0134 71.2128V74.774H58.4434V69.23H60.0134Z" fill="#0C0C18"/>
<path d="M70.843 69.23H72.413V71.3824H75.4615V69.23H77.0315V74.774H75.4615V72.7042H72.413V74.774H70.843V69.23Z" fill="#0C0C18"/>
<path d="M79.7595 69.23H81.3295V74.774H79.7595V69.23Z" fill="#0C0C18"/>
<path d="M89.921 74.7739H88.4014L87.2343 73.0346C86.923 73.0346 86.6208 73.0317 86.3279 73.0259C86.038 73.0201 85.7543 72.9955 85.4766 72.952V74.7739H83.9065V69.2299C84.4069 69.1748 84.9318 69.1328 85.4811 69.1038C86.0303 69.0748 86.569 69.0603 87.0969 69.0603H87.3395C87.8278 69.0603 88.232 69.1096 88.5524 69.2081C88.8698 69.3038 89.1246 69.4342 89.3168 69.5995C89.509 69.7647 89.6434 69.9575 89.7197 70.1778C89.796 70.401 89.8341 70.6358 89.8341 70.8822V71.2127C89.8341 71.5605 89.7608 71.8765 89.6143 72.1606C89.4679 72.4447 89.21 72.665 88.8408 72.8215L89.921 74.4434V74.7739ZM87.1153 70.3865C86.9108 70.3865 86.659 70.3923 86.3599 70.4039C86.0609 70.4155 85.7665 70.4343 85.4766 70.4604V71.6388C85.7482 71.6707 86.0059 71.691 86.2501 71.6997C86.4942 71.7084 86.6926 71.7127 86.8452 71.7127C87.1931 71.7127 87.463 71.6968 87.6553 71.6649C87.8475 71.6359 87.9879 71.591 88.0764 71.5301C88.1679 71.4692 88.2214 71.391 88.2367 71.2953C88.255 71.2025 88.2641 71.0895 88.2641 70.9561C88.2641 70.8866 88.2579 70.817 88.2457 70.7474C88.2335 70.6778 88.1924 70.6155 88.1222 70.5604C88.049 70.5054 87.9329 70.4633 87.7743 70.4343C87.6186 70.4025 87.399 70.3865 87.1153 70.3865Z" fill="#0C0C18"/>
<path d="M92.4203 69.23H93.9903V74.774H92.4203V69.23Z" fill="#0C0C18"/>
<path d="M98.1373 69.23L101.195 72.7868V69.23H102.765V74.774H101.195L98.1373 71.2128V74.774H96.5673V69.23H98.1373Z" fill="#0C0C18"/>
<path d="M110.015 71.991H111.58V74.6739C111.168 74.7579 110.744 74.8232 110.308 74.8695C109.875 74.9159 109.434 74.9391 108.985 74.9391H108.67C108.004 74.9391 107.452 74.8681 107.013 74.726C106.573 74.5811 106.222 74.3854 105.96 74.139C105.7 73.8955 105.517 73.6071 105.411 73.2737C105.307 72.9433 105.255 72.5911 105.255 72.2171V71.7866C105.255 71.4098 105.307 71.0561 105.411 70.7257C105.517 70.3952 105.7 70.1068 105.96 69.8604C106.222 69.614 106.573 69.4198 107.013 69.2777C107.452 69.1328 108.004 69.0603 108.67 69.0603H108.985C109.404 69.0603 109.816 69.0849 110.221 69.1342C110.63 69.1806 111.025 69.2473 111.407 69.3342V70.6865C110.976 70.5764 110.541 70.4967 110.098 70.4474C109.652 70.401 109.267 70.3778 108.94 70.3778C108.418 70.3778 108.016 70.4184 107.736 70.4996C107.452 70.5778 107.246 70.6894 107.118 70.8344C106.987 70.9764 106.91 71.1475 106.889 71.3475C106.868 71.5446 106.857 71.762 106.857 71.9997C106.857 72.2374 106.868 72.4563 106.889 72.6563C106.91 72.8534 106.987 73.0259 107.118 73.1737C107.246 73.3187 107.452 73.4317 107.736 73.5129C108.016 73.5912 108.418 73.6303 108.94 73.6303C109.253 73.6303 109.612 73.6144 110.015 73.5825V71.991Z" fill="#0C0C18"/>
<path d="M120.584 73.6172C120.898 73.6172 121.144 73.6013 121.321 73.5694C121.498 73.5404 121.631 73.5013 121.719 73.452C121.81 73.4056 121.867 73.3535 121.889 73.2955C121.913 73.2375 121.925 73.1839 121.925 73.1346C121.925 73.036 121.901 72.9578 121.852 72.8998C121.803 72.8418 121.724 72.7954 121.614 72.7606C121.507 72.7288 121.366 72.7056 121.188 72.6911C121.011 72.6766 120.798 72.6679 120.547 72.665C120.404 72.6592 120.233 72.6505 120.035 72.6389C119.837 72.6273 119.634 72.6041 119.426 72.5693C119.215 72.5316 119.008 72.4795 118.804 72.4128C118.602 72.3432 118.421 72.2461 118.259 72.1215C118.101 71.9968 117.972 71.8403 117.874 71.6518C117.774 71.4663 117.724 71.2373 117.724 70.9648V70.8605C117.724 70.6228 117.769 70.3952 117.861 70.1778C117.949 69.9575 118.103 69.7647 118.323 69.5995C118.54 69.4342 118.833 69.3038 119.201 69.2081C119.571 69.1096 120.032 69.0603 120.584 69.0603H120.895C121.298 69.0603 121.687 69.0849 122.062 69.1342C122.441 69.1806 122.81 69.2473 123.17 69.3342V70.6996C122.746 70.6068 122.327 70.5329 121.912 70.4778C121.496 70.4228 121.074 70.3952 120.643 70.3952C120.329 70.3952 120.082 70.4097 119.902 70.4387C119.722 70.4706 119.588 70.5097 119.499 70.5561C119.407 70.6025 119.352 70.6518 119.33 70.7039C119.306 70.7561 119.293 70.8083 119.293 70.8605C119.293 70.959 119.318 71.0387 119.367 71.0996C119.415 71.1605 119.497 71.2069 119.609 71.2388C119.719 71.2736 119.861 71.2967 120.035 71.3083C120.208 71.3228 120.418 71.333 120.662 71.3388C120.802 71.3446 120.967 71.3518 121.156 71.3605C121.348 71.3692 121.551 71.391 121.765 71.4257C121.976 71.4605 122.184 71.5142 122.392 71.5866C122.596 71.6591 122.781 71.7577 122.946 71.8823C123.107 72.007 123.239 72.1635 123.339 72.3519C123.443 72.5432 123.495 72.7737 123.495 73.0433V73.152C123.495 73.3897 123.449 73.6158 123.358 73.8303C123.27 74.0448 123.114 74.2347 122.891 74.3999C122.671 74.5652 122.378 74.6971 122.012 74.7956C121.646 74.8913 121.184 74.9391 120.626 74.9391H120.314C119.853 74.9391 119.407 74.9159 118.978 74.8695C118.544 74.8232 118.118 74.7579 117.701 74.6739V73.2824C118.17 73.3839 118.657 73.4651 119.161 73.5259C119.661 73.5868 120.135 73.6172 120.584 73.6172Z" fill="#0C0C18"/>
<path d="M131.57 69.23V70.5518H127.555V71.3824H130.7V72.7042H127.555V73.4478H131.57V74.774H125.985V69.23H131.57Z" fill="#0C0C18"/>
<path d="M139.982 74.7739H138.463L137.296 73.0346C136.982 73.0346 136.679 73.0317 136.389 73.0259C136.099 73.0201 135.816 72.9955 135.538 72.952V74.7739H133.968V69.2299C134.469 69.1748 134.993 69.1328 135.542 69.1038C136.089 69.0748 136.628 69.0603 137.158 69.0603H137.401C137.89 69.0603 138.294 69.1096 138.614 69.2081C138.931 69.3038 139.186 69.4342 139.378 69.5995C139.57 69.7647 139.705 69.9575 139.781 70.1778C139.855 70.401 139.89 70.6358 139.89 70.8822V71.2127C139.89 71.5605 139.82 71.8765 139.676 72.1606C139.53 72.4447 139.27 72.665 138.898 72.8215L139.982 74.4434V74.7739ZM137.177 70.3865C136.972 70.3865 136.72 70.3923 136.422 70.4039C136.122 70.4155 135.828 70.4343 135.538 70.4604V71.6388C135.809 71.6707 136.067 71.691 136.311 71.6997C136.556 71.7084 136.753 71.7127 136.902 71.7127C137.253 71.7127 137.524 71.6968 137.716 71.6649C137.906 71.6359 138.046 71.591 138.138 71.5301C138.226 71.4692 138.28 71.391 138.298 71.2953C138.317 71.2025 138.325 71.0895 138.325 70.9561C138.325 70.8866 138.319 70.817 138.307 70.7474C138.295 70.6778 138.252 70.6155 138.179 70.5604C138.109 70.5054 137.994 70.4633 137.836 70.4343C137.68 70.4025 137.46 70.3865 137.177 70.3865Z" fill="#0C0C18"/>
<path d="M147.283 69.23H148.693V69.5605L146.098 74.774H144.528L141.933 69.5605V69.23H143.342L145.314 73.4478L147.283 69.23Z" fill="#0C0C18"/>
<path d="M150.967 69.23H152.538V74.774H150.967V69.23Z" fill="#0C0C18"/>
<path d="M155.028 72.2171V71.7866C155.028 71.4098 155.078 71.0561 155.178 70.7257C155.277 70.3952 155.444 70.1068 155.682 69.8604C155.921 69.614 156.242 69.4198 156.649 69.2777C157.057 69.1328 157.568 69.0603 158.182 69.0603H158.497C158.891 69.0603 159.274 69.0849 159.647 69.1342C160.018 69.1806 160.385 69.2473 160.745 69.3342V70.6865C160.54 70.6315 160.335 70.5836 160.132 70.543C159.924 70.5054 159.721 70.4735 159.522 70.4474C159.321 70.4242 159.129 70.4068 158.946 70.3952C158.763 70.3836 158.598 70.3778 158.451 70.3778C158 70.3778 157.65 70.4184 157.404 70.4996C157.156 70.5778 156.977 70.6894 156.863 70.8344C156.75 70.9764 156.684 71.1475 156.662 71.3475C156.643 71.5446 156.634 71.762 156.634 71.9997C156.634 72.2374 156.643 72.4563 156.662 72.6563C156.684 72.8534 156.75 73.0259 156.863 73.1737C156.977 73.3187 157.156 73.4317 157.404 73.5129C157.65 73.5912 158 73.6303 158.451 73.6303C158.598 73.6303 158.763 73.6259 158.946 73.6172C159.129 73.6057 159.321 73.5868 159.522 73.5607C159.721 73.5375 159.924 73.5042 160.132 73.4607C160.335 73.4201 160.54 73.3723 160.745 73.3172V74.6739C160.385 74.7579 160.018 74.8232 159.647 74.8695C159.274 74.9159 158.891 74.9391 158.497 74.9391H158.182C157.568 74.9391 157.057 74.8681 156.649 74.726C156.242 74.5811 155.921 74.3854 155.682 74.139C155.444 73.8955 155.277 73.6071 155.178 73.2737C155.078 72.9433 155.028 72.5911 155.028 72.2171Z" fill="#0C0C18"/>
<path d="M168.65 69.23V70.5518H164.63V71.3824H167.776V72.7042H164.63V73.4478H168.65V74.774H163.061V69.23H168.65Z" fill="#0C0C18"/>
<path d="M173.928 73.6172C174.242 73.6172 174.487 73.6013 174.664 73.5694C174.841 73.5404 174.975 73.5013 175.067 73.452C175.156 73.4056 175.212 73.3535 175.237 73.2955C175.261 73.2375 175.273 73.1839 175.273 73.1346C175.273 73.036 175.247 72.9578 175.195 72.8998C175.146 72.8418 175.069 72.7954 174.962 72.7606C174.855 72.7288 174.713 72.7056 174.536 72.6911C174.359 72.6766 174.146 72.6679 173.895 72.665C173.749 72.6592 173.577 72.6505 173.378 72.6389C173.182 72.6273 172.98 72.6041 172.769 72.5693C172.562 72.5316 172.356 72.4795 172.151 72.4128C171.946 72.3432 171.766 72.2461 171.606 72.1215C171.448 71.9968 171.319 71.8403 171.217 71.6518C171.12 71.4663 171.071 71.2373 171.071 70.9648V70.8605C171.071 70.6228 171.115 70.3952 171.204 70.1778C171.296 69.9575 171.449 69.7647 171.666 69.5995C171.885 69.4342 172.181 69.3038 172.549 69.2081C172.919 69.1096 173.378 69.0603 173.928 69.0603H174.243C174.643 69.0603 175.032 69.0849 175.41 69.1342C175.789 69.1806 176.157 69.2473 176.518 69.3342V70.6996C176.094 70.6068 175.675 70.5329 175.259 70.4778C174.844 70.4228 174.421 70.3952 173.991 70.3952C173.677 70.3952 173.43 70.4097 173.25 70.4387C173.07 70.4706 172.934 70.5097 172.842 70.5561C172.754 70.6025 172.697 70.6518 172.673 70.7039C172.652 70.7561 172.641 70.8083 172.641 70.8605C172.641 70.959 172.666 71.0387 172.715 71.0996C172.763 71.1605 172.842 71.2069 172.952 71.2388C173.062 71.2736 173.204 71.2967 173.378 71.3083C173.555 71.3228 173.765 71.333 174.009 71.3388C174.147 71.3446 174.311 71.3518 174.504 71.3605C174.696 71.3692 174.898 71.391 175.108 71.4257C175.322 71.4605 175.531 71.5142 175.736 71.5866C175.943 71.6591 176.127 71.7577 176.289 71.8823C176.454 72.007 176.587 72.1635 176.687 72.3519C176.789 72.5432 176.839 72.7737 176.839 73.0433V73.152C176.839 73.3897 176.794 73.6158 176.706 73.8303C176.614 74.0448 176.458 74.2347 176.239 74.3999C176.019 74.5652 175.726 74.6971 175.36 74.7956C174.994 74.8913 174.531 74.9391 173.973 74.9391H173.657C173.2 74.9391 172.754 74.9159 172.32 74.8695C171.888 74.8232 171.461 74.7579 171.044 74.6739V73.2824C171.514 73.3839 172 73.4651 172.503 73.5259C173.007 73.5868 173.482 73.6172 173.928 73.6172Z" fill="#0C0C18"/>
<path fill-rule="evenodd" clip-rule="evenodd" d="M94.0144 6.19224C114.97 7.21111 131.087 24.1744 130.015 44.0808C129.811 47.8709 128.998 51.4946 127.671 54.8706H132.292C133.454 51.5261 134.169 47.98 134.368 44.2926C135.564 22.102 117.596 3.19225 94.2372 2.05648C70.8779 0.920704 50.9723 17.9889 49.7767 40.1795C49.5002 45.3118 50.2487 50.2686 51.8519 54.8706H56.4744C54.7063 50.3816 53.856 45.4827 54.1303 40.3912C55.2028 20.4847 73.0595 5.17338 94.0144 6.19224Z" fill="#F99837"/>
<path fill-rule="evenodd" clip-rule="evenodd" d="M94.2036 11.1858C112.496 12.0753 126.566 26.8833 125.63 44.2606C125.427 48.0194 124.539 51.5907 123.087 54.8705H128.927C130.135 51.6172 130.877 48.1459 131.072 44.5252C132.161 24.2928 115.78 7.05166 94.4822 6.01611C73.1842 4.98056 55.0351 20.5427 53.9449 40.7751C53.6788 45.7161 54.4545 50.4788 56.0895 54.8705H61.9318C60.0518 50.634 59.123 45.939 59.3869 41.0397C60.3232 23.6625 75.9112 10.2964 94.2036 11.1858Z" fill="white"/>
<path fill-rule="evenodd" clip-rule="evenodd" d="M120.106 54.8706C121.956 51.1253 122.991 46.9438 122.991 42.533C122.991 26.4758 109.288 13.4588 92.385 13.4588C75.482 13.4588 61.7795 26.4758 61.7795 42.533C61.7795 46.9438 62.8135 51.1253 64.6637 54.8706H59.9118C58.3044 51.0562 57.4202 46.8927 57.4202 42.533C57.4202 24.1887 73.0745 9.31763 92.385 9.31763C111.696 9.31763 127.35 24.1887 127.35 42.533C127.35 46.8927 126.466 51.0562 124.859 54.8706H120.106Z" fill="#168A43"/>
</svg>
