<svg width="90" height="90" viewBox="0 0 90 90" fill="none" xmlns="http://www.w3.org/2000/svg">
<path fill-rule="evenodd" clip-rule="evenodd" d="M60.9088 51.4603C62.0924 54.6531 64.9575 54.1208 64.9575 54.1208V56.87C64.9575 56.87 53.9596 57.2259 50.2929 57.8166C46.7985 58.3813 45.9896 59.4824 43.4638 61.7338V69.8488C43.4638 70.6964 42.7718 71.3863 41.9263 71.3863C41.0799 71.3863 40.3879 70.6943 40.3879 69.8488V62.955C35.474 63.48 26.6377 61.4833 26.6377 61.4833C19.3545 38.0326 52.2427 28.0628 60.9088 51.4603Z" fill="#0C0C18"/>
<path fill-rule="evenodd" clip-rule="evenodd" d="M46.6434 23.0465C65.8712 24.0306 80.6607 40.4156 79.6765 59.6434C79.4891 63.3044 78.7435 66.8044 77.5262 70.0653H81.7664C82.8326 66.8348 83.489 63.4097 83.6713 59.8479C84.7684 38.4138 68.282 20.1488 46.8479 19.0517C25.4139 17.9547 7.14878 34.4411 6.05173 55.8751C5.798 60.8324 6.48483 65.6202 7.95591 70.0653H12.1974C10.575 65.7295 9.79478 60.9975 10.0465 56.0796C11.0306 36.8518 27.4156 22.0624 46.6434 23.0465Z" fill="#F99837"/>
<path fill-rule="evenodd" clip-rule="evenodd" d="M46.8171 27.87C63.602 28.7291 76.5124 43.0324 75.6533 59.8172C75.4674 63.448 74.6525 66.8974 73.3196 70.0654H78.6789C79.7874 66.9231 80.4677 63.5702 80.6467 60.0728C81.647 40.5301 66.6154 23.8768 47.0727 22.8765C27.53 21.8763 10.8767 36.9079 9.87645 56.4506C9.63217 61.2232 10.344 65.8234 11.8442 70.0654H17.205C15.48 65.9734 14.6277 61.4384 14.8699 56.7062C15.729 39.9213 30.0323 27.0109 46.8171 27.87Z" fill="white"/>
<path fill-rule="evenodd" clip-rule="evenodd" d="M70.5849 70.0652C72.2827 66.4477 73.2314 62.4088 73.2314 58.1483C73.2314 42.6384 60.6582 30.0652 45.1484 30.0652C29.6385 30.0652 17.0653 42.6384 17.0653 58.1483C17.0653 62.4088 18.0141 66.4477 19.7118 70.0652H15.3515C13.8766 66.3809 13.0653 62.3593 13.0653 58.1483C13.0653 40.4293 27.4294 26.0652 45.1484 26.0652C62.8673 26.0652 77.2314 40.4293 77.2314 58.1483C77.2314 62.3593 76.4201 66.3809 74.9453 70.0652H70.5849Z" fill="#168A43"/>
</svg>
