<svg width="90" height="90" viewBox="0 0 90 90" fill="none" xmlns="http://www.w3.org/2000/svg">
<path fill-rule="evenodd" clip-rule="evenodd" d="M60.9088 51.4602C62.0924 54.653 64.9575 54.1207 64.9575 54.1207V56.8699C64.9575 56.8699 53.9596 57.2258 50.2929 57.8165C46.7985 58.3812 45.9896 59.4823 43.4638 61.7337V69.8487C43.4638 70.6963 42.7718 71.3862 41.9263 71.3862C41.0799 71.3862 40.3879 70.6942 40.3879 69.8487V62.9549C35.474 63.4799 26.6377 61.4832 26.6377 61.4832C19.3545 38.0325 52.2427 28.0627 60.9088 51.4602Z" fill="#0C0C18"/>
<path fill-rule="evenodd" clip-rule="evenodd" d="M46.6434 23.0465C65.8712 24.0306 80.6607 40.4156 79.6765 59.6434C79.4891 63.3044 78.7435 66.8044 77.5262 70.0653H81.7664C82.8326 66.8348 83.489 63.4097 83.6713 59.8479C84.7684 38.4138 68.282 20.1488 46.8479 19.0517C25.4139 17.9547 7.14878 34.4411 6.05173 55.8751C5.798 60.8324 6.48483 65.6202 7.95591 70.0653H12.1974C10.575 65.7295 9.79478 60.9975 10.0465 56.0796C11.0306 36.8518 27.4156 22.0624 46.6434 23.0465Z" fill="#F99837"/>
<path fill-rule="evenodd" clip-rule="evenodd" d="M46.8171 27.8699C63.602 28.729 76.5124 43.0323 75.6533 59.8171C75.4674 63.4479 74.6525 66.8973 73.3196 70.0653H78.6789C79.7874 66.923 80.4677 63.5701 80.6467 60.0727C81.647 40.53 66.6154 23.8767 47.0727 22.8764C27.53 21.8762 10.8767 36.9078 9.87645 56.4505C9.63217 61.2231 10.344 65.8233 11.8442 70.0653H17.205C15.48 65.9733 14.6277 61.4383 14.8699 56.7061C15.729 39.9212 30.0323 27.0108 46.8171 27.8699Z" fill="white"/>
<path fill-rule="evenodd" clip-rule="evenodd" d="M70.5849 70.0653C72.2827 66.4478 73.2314 62.4089 73.2314 58.1484C73.2314 42.6385 60.6582 30.0653 45.1484 30.0653C29.6385 30.0653 17.0653 42.6385 17.0653 58.1484C17.0653 62.4089 18.0141 66.4478 19.7118 70.0653H15.3515C13.8766 66.381 13.0653 62.3594 13.0653 58.1484C13.0653 40.4294 27.4294 26.0653 45.1484 26.0653C62.8673 26.0653 77.2314 40.4294 77.2314 58.1484C77.2314 62.3594 76.4201 66.381 74.9453 70.0653H70.5849Z" fill="#168A43"/>
</svg>
